<?xml version="1.0" encoding="UTF-8"?>
<svg id="Layer_1" xmlns="http://www.w3.org/2000/svg" version="1.1" viewBox="0 0 284.1 126.4">
  <!-- Generator: Adobe Illustrator 30.4.0, SVG Export Plug-In . SVG Version: 2.1.4 Build 226)  -->
  <defs>
    <style>
      .st0 {
        stroke: #909090;
      }

      .st0, .st1, .st2, .st3, .st4, .st5 {
        fill: none;
      }

      .st0, .st1, .st3, .st5 {
        stroke-width: .6px;
      }

      .st0, .st2, .st3, .st4, .st5 {
        stroke-miterlimit: 10;
      }

      .st6 {
        font-size: 6px;
      }

      .st6, .st7 {
        font-family: Sarabun-Light, Sarabun;
        font-weight: 300;
      }

      .st1 {
        stroke-linejoin: round;
      }

      .st1, .st5 {
        stroke: blue;
      }

      .st8 {
        fill: #fff;
      }

      .st2 {
        stroke-width: .4px;
      }

      .st2, .st4 {
        stroke: #000;
      }

      .st3 {
        stroke: #b0b0b0;
      }

      .st4 {
        stroke-width: 1.3px;
      }

      .st7 {
        font-size: 7.5px;
      }
    </style>
  </defs>
  <line class="st4" x1="152.8" y1="104.4" x2="152.8" y2="104.1"/>
  <path class="st4" d="M152.8,104"/>
  <line class="st4" x1="152.8" y1="101.7" x2="152.8" y2="101.4"/>
  <line class="st4" x1="152.8" y1="99.4" x2="152.8" y2="99.1"/>
  <line class="st4" x1="152.8" y1="97.1" x2="152.8" y2="96.8"/>
  <line class="st4" x1="152.8" y1="94.8" x2="152.8" y2="94.5"/>
  <line class="st4" x1="152.8" y1="92.5" x2="152.8" y2="92.2"/>
  <line class="st4" x1="152.8" y1="90.2" x2="152.8" y2="89.9"/>
  <line class="st4" x1="152.8" y1="87.9" x2="152.8" y2="87.6"/>
  <line class="st4" x1="152.8" y1="85.6" x2="152.8" y2="85.3"/>
  <line class="st4" x1="152.8" y1="83.3" x2="152.8" y2="83"/>
  <line class="st4" x1="152.8" y1="81" x2="152.8" y2="80.7"/>
  <line class="st4" x1="152.8" y1="78.6" x2="152.8" y2="78.4"/>
  <line class="st4" x1="152.8" y1="76.3" x2="152.8" y2="76.1"/>
  <line class="st4" x1="152.8" y1="74" x2="152.8" y2="73.8"/>
  <line class="st4" x1="152.8" y1="71.7" x2="152.8" y2="71.4"/>
  <line class="st4" x1="152.8" y1="69.4" x2="152.8" y2="69.1"/>
  <line class="st4" x1="152.8" y1="67.1" x2="152.8" y2="66.8"/>
  <line class="st4" x1="152.8" y1="64.8" x2="152.8" y2="64.5"/>
  <line class="st4" x1="152.8" y1="62.5" x2="152.8" y2="62.2"/>
  <line class="st4" x1="152.8" y1="60.2" x2="152.8" y2="59.9"/>
  <line class="st4" x1="152.8" y1="57.9" x2="152.8" y2="57.6"/>
  <line class="st4" x1="152.8" y1="55.6" x2="152.8" y2="55.3"/>
  <line class="st4" x1="152.8" y1="53.3" x2="152.8" y2="53"/>
  <line class="st4" x1="152.8" y1="51" x2="152.8" y2="50.7"/>
  <line class="st4" x1="152.8" y1="48.7" x2="152.8" y2="48.4"/>
  <line class="st4" x1="152.8" y1="46.4" x2="152.8" y2="46.1"/>
  <line class="st4" x1="152.8" y1="44.1" x2="152.8" y2="43.8"/>
  <line class="st4" x1="152.8" y1="41.8" x2="152.8" y2="41.5"/>
  <line class="st4" x1="152.8" y1="39.5" x2="152.8" y2="39.2"/>
  <line class="st4" x1="152.8" y1="37.2" x2="152.8" y2="36.9"/>
  <line class="st4" x1="152.8" y1="34.9" x2="152.8" y2="34.6"/>
  <line class="st4" x1="152.8" y1="32.6" x2="152.8" y2="32.3"/>
  <line class="st4" x1="152.8" y1="30.3" x2="152.8" y2="30"/>
  <line class="st4" x1="152.8" y1="28" x2="152.8" y2="27.7"/>
  <line class="st4" x1="152.8" y1="25.7" x2="152.8" y2="25.4"/>
  <line class="st4" x1="152.8" y1="23.4" x2="152.8" y2="23.1"/>
  <line class="st4" x1="152.8" y1="21" x2="152.8" y2="20.8"/>
  <line class="st4" x1="152.8" y1="18.7" x2="152.8" y2="18.5"/>
  <line class="st4" x1="152.8" y1="16.4" x2="152.8" y2="16.2"/>
  <line class="st4" x1="152.8" y1="14.1" x2="152.8" y2="13.8"/>
  <line class="st4" x1="152.8" y1="11.8" x2="152.8" y2="11.5"/>
  <line class="st4" x1="152.8" y1="9.5" x2="152.8" y2="9.2"/>
  <line class="st4" x1="152.8" y1="7.2" x2="152.8" y2="6.9"/>
  <line class="st4" x1="152.8" y1="4.9" x2="152.8" y2="4.6"/>
  <line class="st4" x1="152.8" y1="2.6" x2="152.8" y2="2.3"/>
  <line class="st4" x1="152.8" y1=".3" x2="152.8" y2=".2"/>
  <path class="st8" d="M28.4,64.5c0-1.1.9-2,2-2s2,.9,2,2-.9,2-2,2-2-.9-2-2"/>
  <path class="st3" d="M28.7,64.5c0-.9.7-1.6,1.6-1.6s1.6.7,1.6,1.6-.7,1.6-1.6,1.6-1.6-.7-1.6-1.6"/>
  <path class="st8" d="M32.6,55.4c0-1.1.9-2,2-2s2,.9,2,2-.9,2-2,2-2-.9-2-2"/>
  <path class="st3" d="M32.9,55.4c0-.9.7-1.6,1.6-1.6s1.6.7,1.6,1.6-.7,1.6-1.6,1.6-1.6-.7-1.6-1.6"/>
  <path class="st8" d="M36.8,63.6c0-1.1.9-2,2-2s2,.9,2,2-.9,2-2,2-2-.9-2-2"/>
  <path class="st3" d="M37.1,63.6c0-.9.7-1.6,1.6-1.6s1.6.7,1.6,1.6-.7,1.6-1.6,1.6-1.6-.7-1.6-1.6"/>
  <path class="st8" d="M41,54c0-1.1.9-2,2-2s2,.9,2,2-.9,2-2,2-2-.9-2-2"/>
  <path class="st3" d="M41.4,54c0-.9.7-1.6,1.6-1.6s1.6.7,1.6,1.6-.7,1.6-1.6,1.6-1.6-.7-1.6-1.6"/>
  <path class="st8" d="M45.3,55c0-1.1.9-2,2-2s2,.9,2,2-.9,2-2,2-2-.9-2-2"/>
  <path class="st3" d="M45.6,55c0-.9.7-1.6,1.6-1.6s1.6.7,1.6,1.6-.7,1.6-1.6,1.6-1.6-.7-1.6-1.6"/>
  <path class="st8" d="M49.5,50.9c0-1.1.9-2,2-2s2,.9,2,2-.9,2-2,2-2-.9-2-2"/>
  <path class="st3" d="M49.8,50.9c0-.9.7-1.6,1.6-1.6s1.6.7,1.6,1.6-.7,1.6-1.6,1.6-1.6-.7-1.6-1.6"/>
  <path class="st8" d="M53.7,50.1c0-1.1.9-2,2-2s2,.9,2,2-.9,2-2,2-2-.9-2-2"/>
  <path class="st3" d="M54,50.1c0-.9.7-1.6,1.6-1.6s1.6.7,1.6,1.6-.7,1.6-1.6,1.6-1.6-.7-1.6-1.6"/>
  <path class="st8" d="M57.9,52.3c0-1.1.9-2,2-2s2,.9,2,2-.9,2-2,2-2-.9-2-2"/>
  <path class="st3" d="M58.2,52.3c0-.9.7-1.6,1.6-1.6s1.6.7,1.6,1.6-.7,1.6-1.6,1.6-1.6-.7-1.6-1.6"/>
  <path class="st8" d="M62.1,46.7c0-1.1.9-2,2-2s2,.9,2,2-.9,2-2,2-2-.9-2-2"/>
  <path class="st3" d="M62.5,46.7c0-.9.7-1.6,1.6-1.6s1.6.7,1.6,1.6-.7,1.6-1.6,1.6-1.6-.7-1.6-1.6"/>
  <path class="st8" d="M66.4,46.1c0-1.1.9-2,2-2s2,.9,2,2-.9,2-2,2-2-.9-2-2"/>
  <path class="st3" d="M66.7,46.1c0-.9.7-1.6,1.6-1.6s1.6.7,1.6,1.6-.7,1.6-1.6,1.6-1.6-.7-1.6-1.6"/>
  <path class="st8" d="M70.6,37.9c0-1.1.9-2,2-2s2,.9,2,2-.9,2-2,2-2-.9-2-2"/>
  <path class="st3" d="M70.9,37.9c0-.9.7-1.6,1.6-1.6s1.6.7,1.6,1.6-.7,1.6-1.6,1.6-1.6-.7-1.6-1.6"/>
  <path class="st8" d="M74.8,47.1c0-1.1.9-2,2-2s2,.9,2,2-.9,2-2,2-2-.9-2-2"/>
  <path class="st3" d="M75.1,47.1c0-.9.7-1.6,1.6-1.6s1.6.7,1.6,1.6-.7,1.6-1.6,1.6-1.6-.7-1.6-1.6"/>
  <path class="st8" d="M79,42.7c0-1.1.9-2,2-2s2,.9,2,2-.9,2-2,2-2-.9-2-2"/>
  <path class="st3" d="M79.4,42.7c0-.9.7-1.6,1.6-1.6s1.6.7,1.6,1.6-.7,1.6-1.6,1.6-1.6-.7-1.6-1.6"/>
  <path class="st8" d="M83.3,48c0-1.1.9-2,2-2s2,.9,2,2-.9,2-2,2-2-.9-2-2"/>
  <path class="st3" d="M83.6,48c0-.9.7-1.6,1.6-1.6s1.6.7,1.6,1.6-.7,1.6-1.6,1.6-1.6-.7-1.6-1.6"/>
  <path class="st8" d="M87.5,48.5c0-1.1.9-2,2-2s2,.9,2,2-.9,2-2,2-2-.9-2-2"/>
  <path class="st3" d="M87.8,48.5c0-.9.7-1.6,1.6-1.6s1.6.7,1.6,1.6-.7,1.6-1.6,1.6-1.6-.7-1.6-1.6"/>
  <path class="st8" d="M91.7,53.5c0-1.1.9-2,2-2s2,.9,2,2-.9,2-2,2-2-.9-2-2"/>
  <path class="st3" d="M92,53.5c0-.9.7-1.6,1.6-1.6s1.6.7,1.6,1.6-.7,1.6-1.6,1.6-1.6-.7-1.6-1.6"/>
  <path class="st8" d="M95.9,37.3c0-1.1.9-2,2-2s2,.9,2,2-.9,2-2,2-2-.9-2-2"/>
  <path class="st3" d="M96.2,37.3c0-.9.7-1.6,1.6-1.6s1.6.7,1.6,1.6-.7,1.6-1.6,1.6-1.6-.7-1.6-1.6"/>
  <path class="st8" d="M100.1,37.8c0-1.1.9-2,2-2s2,.9,2,2-.9,2-2,2-2-.9-2-2"/>
  <path class="st3" d="M100.5,37.8c0-.9.7-1.6,1.6-1.6s1.6.7,1.6,1.6-.7,1.6-1.6,1.6-1.6-.7-1.6-1.6"/>
  <path class="st8" d="M104.4,40.6c0-1.1.9-2,2-2s2,.9,2,2-.9,2-2,2-2-.9-2-2"/>
  <path class="st3" d="M104.7,40.6c0-.9.7-1.6,1.6-1.6s1.6.7,1.6,1.6-.7,1.6-1.6,1.6-1.6-.7-1.6-1.6"/>
  <path class="st8" d="M108.6,43.9c0-1.1.9-2,2-2s2,.9,2,2-.9,2-2,2-2-.9-2-2"/>
  <path class="st3" d="M108.9,43.9c0-.9.7-1.6,1.6-1.6s1.6.7,1.6,1.6-.7,1.6-1.6,1.6-1.6-.7-1.6-1.6"/>
  <path class="st8" d="M112.8,47.8c0-1.1.9-2,2-2s2,.9,2,2-.9,2-2,2-2-.9-2-2"/>
  <path class="st3" d="M113.1,47.8c0-.9.7-1.6,1.6-1.6s1.6.7,1.6,1.6-.7,1.6-1.6,1.6-1.6-.7-1.6-1.6"/>
  <path class="st8" d="M117,43.4c0-1.1.9-2,2-2s2,.9,2,2-.9,2-2,2-2-.9-2-2"/>
  <path class="st3" d="M117.3,43.4c0-.9.7-1.6,1.6-1.6s1.6.7,1.6,1.6-.7,1.6-1.6,1.6-1.6-.7-1.6-1.6"/>
  <path class="st8" d="M121.2,44.9c0-1.1.9-2,2-2s2,.9,2,2-.9,2-2,2-2-.9-2-2"/>
  <path class="st3" d="M121.6,44.9c0-.9.7-1.6,1.6-1.6s1.6.7,1.6,1.6-.7,1.6-1.6,1.6-1.6-.7-1.6-1.6"/>
  <path class="st8" d="M125.5,50.3c0-1.1.9-2,2-2s2,.9,2,2-.9,2-2,2-2-.9-2-2"/>
  <path class="st3" d="M125.8,50.3c0-.9.7-1.6,1.6-1.6s1.6.7,1.6,1.6-.7,1.6-1.6,1.6-1.6-.7-1.6-1.6"/>
  <path class="st8" d="M129.7,42c0-1.1.9-2,2-2s2,.9,2,2-.9,2-2,2-2-.9-2-2"/>
  <path class="st3" d="M130,42c0-.9.7-1.6,1.6-1.6s1.6.7,1.6,1.6-.7,1.6-1.6,1.6-1.6-.7-1.6-1.6"/>
  <path class="st8" d="M133.9,33.3c0-1.1.9-2,2-2s2,.9,2,2-.9,2-2,2-2-.9-2-2"/>
  <path class="st3" d="M134.2,33.3c0-.9.7-1.6,1.6-1.6s1.6.7,1.6,1.6-.7,1.6-1.6,1.6-1.6-.7-1.6-1.6"/>
  <path class="st8" d="M138.1,35.9c0-1.1.9-2,2-2s2,.9,2,2-.9,2-2,2-2-.9-2-2"/>
  <path class="st3" d="M138.5,35.9c0-.9.7-1.6,1.6-1.6s1.6.7,1.6,1.6-.7,1.6-1.6,1.6-1.6-.7-1.6-1.6"/>
  <path class="st8" d="M142.4,33.6c0-1.1.9-2,2-2s2,.9,2,2-.9,2-2,2-2-.9-2-2"/>
  <path class="st3" d="M142.7,33.6c0-.9.7-1.6,1.6-1.6s1.6.7,1.6,1.6-.7,1.6-1.6,1.6-1.6-.7-1.6-1.6"/>
  <path class="st8" d="M146.6,42.7c0-1.1.9-2,2-2s2,.9,2,2-.9,2-2,2-2-.9-2-2"/>
  <path class="st3" d="M146.9,42.7c0-.9.7-1.6,1.6-1.6s1.6.7,1.6,1.6-.7,1.6-1.6,1.6-1.6-.7-1.6-1.6"/>
  <path class="st8" d="M150.8,36.3c0-1.1.9-2,2-2s2,.9,2,2-.9,2-2,2-2-.9-2-2"/>
  <path class="st3" d="M151.1,36.3c0-.9.7-1.6,1.6-1.6s1.6.7,1.6,1.6-.7,1.6-1.6,1.6-1.6-.7-1.6-1.6"/>
  <path class="st8" d="M155,32.8c0-1.1.9-2,2-2s2,.9,2,2-.9,2-2,2-2-.9-2-2"/>
  <path class="st3" d="M155.3,32.8c0-.9.7-1.6,1.6-1.6s1.6.7,1.6,1.6-.7,1.6-1.6,1.6-1.6-.7-1.6-1.6"/>
  <path class="st8" d="M159.2,28.1c0-1.1.9-2,2-2s2,.9,2,2-.9,2-2,2-2-.9-2-2"/>
  <path class="st3" d="M159.6,28.1c0-.9.7-1.6,1.6-1.6s1.6.7,1.6,1.6-.7,1.6-1.6,1.6-1.6-.7-1.6-1.6"/>
  <path class="st8" d="M163.5,49.2c0-1.1.9-2,2-2s2,.9,2,2-.9,2-2,2-2-.9-2-2"/>
  <path class="st3" d="M163.8,49.2c0-.9.7-1.6,1.6-1.6s1.6.7,1.6,1.6-.7,1.6-1.6,1.6-1.6-.7-1.6-1.6"/>
  <path class="st8" d="M167.7,41.9c0-1.1.9-2,2-2s2,.9,2,2-.9,2-2,2-2-.9-2-2"/>
  <path class="st3" d="M168,41.9c0-.9.7-1.6,1.6-1.6s1.6.7,1.6,1.6-.7,1.6-1.6,1.6-1.6-.7-1.6-1.6"/>
  <path class="st8" d="M171.9,44.1c0-1.1.9-2,2-2s2,.9,2,2-.9,2-2,2-2-.9-2-2"/>
  <path class="st3" d="M172.2,44.1c0-.9.7-1.6,1.6-1.6s1.6.7,1.6,1.6-.7,1.6-1.6,1.6-1.6-.7-1.6-1.6"/>
  <path class="st8" d="M176.1,43.8c0-1.1.9-2,2-2s2,.9,2,2-.9,2-2,2-2-.9-2-2"/>
  <path class="st3" d="M176.4,43.8c0-.9.7-1.6,1.6-1.6s1.6.7,1.6,1.6-.7,1.6-1.6,1.6-1.6-.7-1.6-1.6"/>
  <path class="st8" d="M180.3,28.7c0-1.1.9-2,2-2s2,.9,2,2-.9,2-2,2-2-.9-2-2"/>
  <path class="st3" d="M180.7,28.7c0-.9.7-1.6,1.6-1.6s1.6.7,1.6,1.6-.7,1.6-1.6,1.6-1.6-.7-1.6-1.6"/>
  <path class="st8" d="M184.6,28.3c0-1.1.9-2,2-2s2,.9,2,2-.9,2-2,2-2-.9-2-2"/>
  <path class="st3" d="M184.9,28.3c0-.9.7-1.6,1.6-1.6s1.6.7,1.6,1.6-.7,1.6-1.6,1.6-1.6-.7-1.6-1.6"/>
  <path class="st8" d="M188.8,45.7c0-1.1.9-2,2-2s2,.9,2,2-.9,2-2,2-2-.9-2-2"/>
  <path class="st3" d="M189.1,45.7c0-.9.7-1.6,1.6-1.6s1.6.7,1.6,1.6-.7,1.6-1.6,1.6-1.6-.7-1.6-1.6"/>
  <path class="st8" d="M193,23c0-1.1.9-2,2-2s2,.9,2,2-.9,2-2,2-2-.9-2-2"/>
  <path class="st3" d="M193.3,23c0-.9.7-1.6,1.6-1.6s1.6.7,1.6,1.6-.7,1.6-1.6,1.6-1.6-.7-1.6-1.6"/>
  <path class="st8" d="M197.2,32.7c0-1.1.9-2,2-2s2,.9,2,2-.9,2-2,2-2-.9-2-2"/>
  <path class="st3" d="M197.6,32.7c0-.9.7-1.6,1.6-1.6s1.6.7,1.6,1.6-.7,1.6-1.6,1.6-1.6-.7-1.6-1.6"/>
  <path class="st8" d="M201.4,35.5c0-1.1.9-2,2-2s2,.9,2,2-.9,2-2,2-2-.9-2-2"/>
  <path class="st3" d="M201.8,35.5c0-.9.7-1.6,1.6-1.6s1.6.7,1.6,1.6-.7,1.6-1.6,1.6-1.6-.7-1.6-1.6"/>
  <path class="st8" d="M205.7,26.1c0-1.1.9-2,2-2s2,.9,2,2-.9,2-2,2-2-.9-2-2"/>
  <path class="st3" d="M206,26.1c0-.9.7-1.6,1.6-1.6s1.6.7,1.6,1.6-.7,1.6-1.6,1.6-1.6-.7-1.6-1.6"/>
  <path class="st8" d="M209.9,39.4c0-1.1.9-2,2-2s2,.9,2,2-.9,2-2,2-2-.9-2-2"/>
  <path class="st3" d="M210.2,39.4c0-.9.7-1.6,1.6-1.6s1.6.7,1.6,1.6-.7,1.6-1.6,1.6-1.6-.7-1.6-1.6"/>
  <path class="st8" d="M214.1,32.2c0-1.1.9-2,2-2s2,.9,2,2-.9,2-2,2-2-.9-2-2"/>
  <path class="st3" d="M214.4,32.2c0-.9.7-1.6,1.6-1.6s1.6.7,1.6,1.6-.7,1.6-1.6,1.6-1.6-.7-1.6-1.6"/>
  <path class="st8" d="M218.3,32.9c0-1.1.9-2,2-2s2,.9,2,2-.9,2-2,2-2-.9-2-2"/>
  <path class="st3" d="M218.7,32.9c0-.9.7-1.6,1.6-1.6s1.6.7,1.6,1.6-.7,1.6-1.6,1.6-1.6-.7-1.6-1.6"/>
  <path class="st8" d="M222.6,41.5c0-1.1.9-2,2-2s2,.9,2,2-.9,2-2,2-2-.9-2-2"/>
  <path class="st3" d="M222.9,41.5c0-.9.7-1.6,1.6-1.6s1.6.7,1.6,1.6-.7,1.6-1.6,1.6-1.6-.7-1.6-1.6"/>
  <path class="st8" d="M226.8,32.7c0-1.1.9-2,2-2s2,.9,2,2-.9,2-2,2-2-.9-2-2"/>
  <path class="st3" d="M227.1,32.7c0-.9.7-1.6,1.6-1.6s1.6.7,1.6,1.6-.7,1.6-1.6,1.6-1.6-.7-1.6-1.6"/>
  <path class="st8" d="M231,47.5c0-1.1.9-2,2-2s2,.9,2,2-.9,2-2,2-2-.9-2-2"/>
  <path class="st3" d="M231.3,47.5c0-.9.7-1.6,1.6-1.6s1.6.7,1.6,1.6-.7,1.6-1.6,1.6-1.6-.7-1.6-1.6"/>
  <path class="st8" d="M235.2,35.6c0-1.1.9-2,2-2s2,.9,2,2-.9,2-2,2-2-.9-2-2"/>
  <path class="st3" d="M235.5,35.6c0-.9.7-1.6,1.6-1.6s1.6.7,1.6,1.6-.7,1.6-1.6,1.6-1.6-.7-1.6-1.6"/>
  <path class="st8" d="M239.4,44.2c0-1.1.9-2,2-2s2,.9,2,2-.9,2-2,2-2-.9-2-2"/>
  <path class="st3" d="M239.8,44.2c0-.9.7-1.6,1.6-1.6s1.6.7,1.6,1.6-.7,1.6-1.6,1.6-1.6-.7-1.6-1.6"/>
  <path class="st8" d="M243.7,34.9c0-1.1.9-2,2-2s2,.9,2,2-.9,2-2,2-2-.9-2-2"/>
  <path class="st3" d="M244,34.9c0-.9.7-1.6,1.6-1.6s1.6.7,1.6,1.6-.7,1.6-1.6,1.6-1.6-.7-1.6-1.6"/>
  <path class="st8" d="M247.9,37.9c0-1.1.9-2,2-2s2,.9,2,2-.9,2-2,2-2-.9-2-2"/>
  <path class="st3" d="M248.2,37.9c0-.9.7-1.6,1.6-1.6s1.6.7,1.6,1.6-.7,1.6-1.6,1.6-1.6-.7-1.6-1.6"/>
  <path class="st8" d="M252.1,41.3c0-1.1.9-2,2-2s2,.9,2,2-.9,2-2,2-2-.9-2-2"/>
  <path class="st3" d="M252.4,41.3c0-.9.7-1.6,1.6-1.6s1.6.7,1.6,1.6-.7,1.6-1.6,1.6-1.6-.7-1.6-1.6"/>
  <path class="st8" d="M256.3,37c0-1.1.9-2,2-2s2,.9,2,2-.9,2-2,2-2-.9-2-2"/>
  <path class="st3" d="M256.7,37c0-.9.7-1.6,1.6-1.6s1.6.7,1.6,1.6-.7,1.6-1.6,1.6-1.6-.7-1.6-1.6"/>
  <path class="st8" d="M260.6,44.9c0-1.1.9-2,2-2s2,.9,2,2-.9,2-2,2-2-.9-2-2"/>
  <path class="st3" d="M260.9,44.9c0-.9.7-1.6,1.6-1.6s1.6.7,1.6,1.6-.7,1.6-1.6,1.6-1.6-.7-1.6-1.6"/>
  <path class="st8" d="M264.8,40.9c0-1.1.9-2,2-2s2,.9,2,2-.9,2-2,2-2-.9-2-2"/>
  <path class="st3" d="M265.1,40.9c0-.9.7-1.6,1.6-1.6s1.6.7,1.6,1.6-.7,1.6-1.6,1.6-1.6-.7-1.6-1.6"/>
  <path class="st8" d="M269,31.4c0-1.1.9-2,2-2s2,.9,2,2-.9,2-2,2-2-.9-2-2"/>
  <path class="st3" d="M269.3,31.4c0-.9.7-1.6,1.6-1.6s1.6.7,1.6,1.6-.7,1.6-1.6,1.6-1.6-.7-1.6-1.6"/>
  <path class="st8" d="M273.2,34c0-1.1.9-2,2-2s2,.9,2,2-.9,2-2,2-2-.9-2-2"/>
  <path class="st3" d="M273.5,34c0-.9.7-1.6,1.6-1.6s1.6.7,1.6,1.6-.7,1.6-1.6,1.6-1.6-.7-1.6-1.6"/>
  <path class="st8" d="M277.4,14.5c0-1.1.9-2,2-2s2,.9,2,2-.9,2-2,2-2-.9-2-2"/>
  <path class="st3" d="M277.8,14.5c0-.9.7-1.6,1.6-1.6s1.6.7,1.6,1.6-.7,1.6-1.6,1.6-1.6-.7-1.6-1.6"/>
  <polygon class="st8" points="30.3 64.2 28.2 68 32.5 68 30.3 64.2"/>
  <polygon class="st5" points="30.3 64.8 28.7 67.6 32 67.6 30.3 64.8"/>
  <polygon class="st8" points="34.6 54 32.4 57.8 36.7 57.8 34.6 54"/>
  <polygon class="st5" points="34.6 54.6 32.9 57.5 36.2 57.5 34.6 54.6"/>
  <polygon class="st8" points="38.8 44.6 36.6 48.4 41 48.4 38.8 44.6"/>
  <polygon class="st5" points="38.8 45.3 37.2 48.1 40.4 48.1 38.8 45.3"/>
  <polygon class="st8" points="43 35.3 40.8 39.1 45.2 39.1 43 35.3"/>
  <polygon class="st5" points="43 36 41.4 38.8 44.6 38.8 43 36"/>
  <polygon class="st8" points="47.2 45.1 45 48.8 49.4 48.8 47.2 45.1"/>
  <polygon class="st5" points="47.2 45.7 45.6 48.5 48.8 48.5 47.2 45.7"/>
  <polygon class="st8" points="51.4 72.1 49.3 75.9 53.6 75.9 51.4 72.1"/>
  <polygon class="st5" points="51.4 72.8 49.8 75.6 53.1 75.6 51.4 72.8"/>
  <polygon class="st8" points="55.7 54.3 53.5 58.1 57.9 58.1 55.7 54.3"/>
  <polygon class="st5" points="55.7 55 54.1 57.8 57.3 57.8 55.7 55"/>
  <polygon class="st8" points="59.9 50.8 57.7 54.5 62.1 54.5 59.9 50.8"/>
  <polygon class="st5" points="59.9 51.4 58.3 54.2 61.5 54.2 59.9 51.4"/>
  <polygon class="st8" points="64.1 42 61.9 45.8 66.3 45.8 64.1 42"/>
  <polygon class="st5" points="64.1 42.6 62.5 45.5 65.7 45.5 64.1 42.6"/>
  <polygon class="st8" points="68.3 51 66.2 54.8 70.5 54.8 68.3 51"/>
  <polygon class="st5" points="68.3 51.6 66.7 54.4 70 54.4 68.3 51.6"/>
  <polygon class="st8" points="72.6 60 70.4 63.8 74.7 63.8 72.6 60"/>
  <polygon class="st5" points="72.6 60.7 70.9 63.5 74.2 63.5 72.6 60.7"/>
  <polygon class="st8" points="76.8 56.7 74.6 60.5 79 60.5 76.8 56.7"/>
  <polygon class="st5" points="76.8 57.4 75.2 60.2 78.4 60.2 76.8 57.4"/>
  <polygon class="st8" points="81 48 78.8 51.8 83.2 51.8 81 48"/>
  <polygon class="st5" points="81 48.7 79.4 51.5 82.6 51.5 81 48.7"/>
  <polygon class="st8" points="85.2 35.4 83 39.2 87.4 39.2 85.2 35.4"/>
  <polygon class="st5" points="85.2 36.1 83.6 38.9 86.8 38.9 85.2 36.1"/>
  <polygon class="st8" points="89.4 22.8 87.3 26.6 91.6 26.6 89.4 22.8"/>
  <polygon class="st5" points="89.4 23.4 87.8 26.2 91.1 26.2 89.4 23.4"/>
  <polygon class="st8" points="93.7 35.6 91.5 39.4 95.8 39.4 93.7 35.6"/>
  <polygon class="st5" points="93.7 36.3 92 39.1 95.3 39.1 93.7 36.3"/>
  <polygon class="st8" points="97.9 44.1 95.7 47.9 100.1 47.9 97.9 44.1"/>
  <polygon class="st5" points="97.9 44.8 96.3 47.6 99.5 47.6 97.9 44.8"/>
  <polygon class="st8" points="102.1 62.3 99.9 66.1 104.3 66.1 102.1 62.3"/>
  <polygon class="st5" points="102.1 63 100.5 65.8 103.7 65.8 102.1 63"/>
  <polygon class="st8" points="106.3 46.9 104.1 50.7 108.5 50.7 106.3 46.9"/>
  <polygon class="st5" points="106.3 47.5 104.7 50.4 107.9 50.4 106.3 47.5"/>
  <polygon class="st8" points="110.5 52.5 108.4 56.3 112.7 56.3 110.5 52.5"/>
  <polygon class="st5" points="110.5 53.2 108.9 56 112.2 56 110.5 53.2"/>
  <polygon class="st8" points="114.8 43.5 112.6 47.3 117 47.3 114.8 43.5"/>
  <polygon class="st5" points="114.8 44.1 113.1 46.9 116.4 46.9 114.8 44.1"/>
  <polygon class="st8" points="119 45.8 116.8 49.6 121.2 49.6 119 45.8"/>
  <polygon class="st5" points="119 46.4 117.4 49.2 120.6 49.2 119 46.4"/>
  <polygon class="st8" points="123.2 24.5 121 28.3 125.4 28.3 123.2 24.5"/>
  <polygon class="st5" points="123.2 25.2 121.6 28 124.8 28 123.2 25.2"/>
  <polygon class="st8" points="127.4 42.6 125.2 46.4 129.6 46.4 127.4 42.6"/>
  <polygon class="st5" points="127.4 43.3 125.8 46.1 129.1 46.1 127.4 43.3"/>
  <polygon class="st8" points="131.7 45.7 129.5 49.5 133.8 49.5 131.7 45.7"/>
  <polygon class="st5" points="131.7 46.4 130 49.2 133.3 49.2 131.7 46.4"/>
  <polygon class="st8" points="135.9 54.8 133.7 58.6 138.1 58.6 135.9 54.8"/>
  <polygon class="st5" points="135.9 55.4 134.3 58.2 137.5 58.2 135.9 55.4"/>
  <polygon class="st8" points="140.1 82.2 137.9 86 142.3 86 140.1 82.2"/>
  <polygon class="st5" points="140.1 82.9 138.5 85.7 141.7 85.7 140.1 82.9"/>
  <polygon class="st8" points="144.3 78.5 142.1 82.3 146.5 82.3 144.3 78.5"/>
  <polygon class="st5" points="144.3 79.2 142.7 82 145.9 82 144.3 79.2"/>
  <polygon class="st8" points="148.5 78.5 146.4 82.3 150.7 82.3 148.5 78.5"/>
  <polygon class="st5" points="148.5 79.2 146.9 82 150.2 82 148.5 79.2"/>
  <polygon class="st8" points="152.8 90.6 150.6 94.4 154.9 94.4 152.8 90.6"/>
  <polygon class="st5" points="152.8 91.2 151.1 94 154.4 94 152.8 91.2"/>
  <polygon class="st8" points="157 99.3 154.8 103.1 159.2 103.1 157 99.3"/>
  <polygon class="st5" points="157 100 155.4 102.8 158.6 102.8 157 100"/>
  <polygon class="st8" points="161.2 81.2 159 85 163.4 85 161.2 81.2"/>
  <polygon class="st5" points="161.2 81.9 159.6 84.7 162.8 84.7 161.2 81.9"/>
  <polygon class="st8" points="165.4 84.2 163.2 88 167.6 88 165.4 84.2"/>
  <polygon class="st5" points="165.4 84.9 163.8 87.7 167.1 87.7 165.4 84.9"/>
  <polygon class="st8" points="169.7 42 167.5 45.8 171.8 45.8 169.7 42"/>
  <polygon class="st5" points="169.7 42.7 168 45.5 171.3 45.5 169.7 42.7"/>
  <polygon class="st8" points="173.9 29.9 171.7 33.7 176.1 33.7 173.9 29.9"/>
  <polygon class="st5" points="173.9 30.6 172.3 33.4 175.5 33.4 173.9 30.6"/>
  <polygon class="st8" points="178.1 24 175.9 27.8 180.3 27.8 178.1 24"/>
  <polygon class="st5" points="178.1 24.7 176.5 27.5 179.7 27.5 178.1 24.7"/>
  <polygon class="st8" points="182.3 36.1 180.1 39.9 184.5 39.9 182.3 36.1"/>
  <polygon class="st5" points="182.3 36.7 180.7 39.5 183.9 39.5 182.3 36.7"/>
  <polygon class="st8" points="186.5 45 184.4 48.8 188.7 48.8 186.5 45"/>
  <polygon class="st5" points="186.5 45.7 184.9 48.5 188.2 48.5 186.5 45.7"/>
  <polygon class="st8" points="190.8 26.9 188.6 30.7 192.9 30.7 190.8 26.9"/>
  <polygon class="st5" points="190.8 27.6 189.1 30.4 192.4 30.4 190.8 27.6"/>
  <polygon class="st8" points="195 60.1 192.8 63.9 197.2 63.9 195 60.1"/>
  <polygon class="st5" points="195 60.8 193.4 63.6 196.6 63.6 195 60.8"/>
  <polygon class="st8" points="199.2 51.1 197 54.8 201.4 54.8 199.2 51.1"/>
  <polygon class="st5" points="199.2 51.7 197.6 54.5 200.8 54.5 199.2 51.7"/>
  <polygon class="st8" points="203.4 42.1 201.2 45.9 205.6 45.9 203.4 42.1"/>
  <polygon class="st5" points="203.4 42.8 201.8 45.6 205 45.6 203.4 42.8"/>
  <polygon class="st8" points="207.6 36.1 205.5 39.9 209.8 39.9 207.6 36.1"/>
  <polygon class="st5" points="207.6 36.7 206 39.5 209.3 39.5 207.6 36.7"/>
  <polygon class="st8" points="211.9 54.2 209.7 58 214.1 58 211.9 54.2"/>
  <polygon class="st5" points="211.9 54.9 210.2 57.7 213.5 57.7 211.9 54.9"/>
  <polygon class="st8" points="216.1 48.4 213.9 52.2 218.3 52.2 216.1 48.4"/>
  <polygon class="st5" points="216.1 49 214.5 51.8 217.7 51.8 216.1 49"/>
  <polygon class="st8" points="220.3 45.2 218.1 49 222.5 49 220.3 45.2"/>
  <polygon class="st5" points="220.3 45.8 218.7 48.6 221.9 48.6 220.3 45.8"/>
  <polygon class="st8" points="224.5 45.3 222.4 49 226.7 49 224.5 45.3"/>
  <polygon class="st5" points="224.5 45.9 222.9 48.7 226.2 48.7 224.5 45.9"/>
  <polygon class="st8" points="228.8 36.7 226.6 40.5 230.9 40.5 228.8 36.7"/>
  <polygon class="st5" points="228.8 37.4 227.1 40.2 230.4 40.2 228.8 37.4"/>
  <polygon class="st8" points="233 51.9 230.8 55.7 235.2 55.7 233 51.9"/>
  <polygon class="st5" points="233 52.6 231.4 55.4 234.6 55.4 233 52.6"/>
  <polygon class="st8" points="237.2 48.8 235 52.6 239.4 52.6 237.2 48.8"/>
  <polygon class="st5" points="237.2 49.4 235.6 52.2 238.8 52.2 237.2 49.4"/>
  <polygon class="st8" points="241.4 73.2 239.2 77 243.6 77 241.4 73.2"/>
  <polygon class="st5" points="241.4 73.8 239.8 76.7 243 76.7 241.4 73.8"/>
  <polygon class="st8" points="245.6 61.1 243.5 64.9 247.8 64.9 245.6 61.1"/>
  <polygon class="st5" points="245.6 61.8 244 64.6 247.3 64.6 245.6 61.8"/>
  <polygon class="st8" points="249.9 58.6 247.7 62.4 252 62.4 249.9 58.6"/>
  <polygon class="st5" points="249.9 59.2 248.2 62 251.5 62 249.9 59.2"/>
  <polygon class="st8" points="254.1 55.1 251.9 58.9 256.3 58.9 254.1 55.1"/>
  <polygon class="st5" points="254.1 55.8 252.5 58.6 255.7 58.6 254.1 55.8"/>
  <polygon class="st8" points="258.3 34 256.1 37.8 260.5 37.8 258.3 34"/>
  <polygon class="st5" points="258.3 34.7 256.7 37.5 259.9 37.5 258.3 34.7"/>
  <polygon class="st8" points="262.5 27.8 260.3 31.6 264.7 31.6 262.5 27.8"/>
  <polygon class="st5" points="262.5 28.4 260.9 31.3 264.1 31.3 262.5 28.4"/>
  <polygon class="st8" points="266.7 25.2 264.6 29 268.9 29 266.7 25.2"/>
  <polygon class="st5" points="266.7 25.9 265.1 28.7 268.4 28.7 266.7 25.9"/>
  <polygon class="st8" points="271 18.7 268.8 22.4 273.1 22.4 271 18.7"/>
  <polygon class="st5" points="271 19.3 269.3 22.1 272.6 22.1 271 19.3"/>
  <polygon class="st8" points="275.2 25.3 273 29.1 277.4 29.1 275.2 25.3"/>
  <polygon class="st5" points="275.2 26 273.6 28.8 276.8 28.8 275.2 26"/>
  <polygon class="st8" points="279.4 13.2 277.2 17 281.6 17 279.4 13.2"/>
  <polygon class="st5" points="279.4 13.9 277.8 16.7 281 16.7 279.4 13.9"/>
  <line class="st0" x1="30.3" y1="61.2" x2="34.6" y2="57.7"/>
  <line class="st0" x1="34.6" y1="57.7" x2="34.8" y2="57.7"/>
  <line class="st0" x1="37.7" y1="57.6" x2="38.8" y2="57.5"/>
  <line class="st0" x1="38.8" y1="57.5" x2="42.1" y2="54.2"/>
  <line class="st0" x1="44.5" y1="52.8" x2="47.2" y2="52"/>
  <line class="st0" x1="47.2" y1="52" x2="50.1" y2="51.4"/>
  <line class="st0" x1="52.8" y1="50.6" x2="55.7" y2="49.7"/>
  <line class="st0" x1="55.7" y1="49.7" x2="58.3" y2="48.8"/>
  <line class="st0" x1="60.7" y1="47.4" x2="64.1" y2="43.5"/>
  <line class="st0" x1="64.1" y1="43.5" x2="64.7" y2="43.6"/>
  <line class="st0" x1="67.6" y1="43.7" x2="68.3" y2="43.7"/>
  <line class="st0" x1="68.3" y1="43.7" x2="72.6" y2="42.5"/>
  <line class="st0" x1="72.6" y1="42.5" x2="73.1" y2="42.9"/>
  <line class="st0" x1="75.3" y1="44.7" x2="76.8" y2="45.9"/>
  <line class="st0" x1="76.8" y1="45.9" x2="80.6" y2="46.4"/>
  <line class="st0" x1="82.9" y1="48" x2="85.2" y2="50"/>
  <line class="st0" x1="85.2" y1="50" x2="87.3" y2="48.2"/>
  <line class="st0" x1="89.5" y1="46.4" x2="93.7" y2="42.9"/>
  <line class="st0" x1="93.7" y1="42.9" x2="93.9" y2="42.6"/>
  <line class="st0" x1="95.9" y1="40.6" x2="97.9" y2="38.6"/>
  <line class="st0" x1="97.9" y1="38.6" x2="100.5" y2="39.9"/>
  <line class="st0" x1="102.9" y1="41.4" x2="106.3" y2="44.1"/>
  <line class="st0" x1="106.3" y1="44.1" x2="107.7" y2="44.4"/>
  <line class="st0" x1="110.5" y1="45" x2="110.5" y2="45"/>
  <line class="st0" x1="110.5" y1="45" x2="114.8" y2="45.4"/>
  <line class="st0" x1="114.8" y1="45.4" x2="116.3" y2="45.7"/>
  <line class="st0" x1="119.1" y1="46.2" x2="123.2" y2="45.8"/>
  <line class="st0" x1="123.2" y1="45.8" x2="124.4" y2="44.7"/>
  <line class="st0" x1="126.5" y1="42.7" x2="127.4" y2="41.9"/>
  <line class="st0" x1="127.4" y1="41.9" x2="130.4" y2="38.5"/>
  <line class="st0" x1="132.5" y1="36.5" x2="135.9" y2="34.3"/>
  <line class="st0" x1="135.9" y1="34.3" x2="137.2" y2="35.3"/>
  <line class="st0" x1="139.6" y1="37" x2="140.1" y2="37.4"/>
  <line class="st0" x1="140.1" y1="37.4" x2="144.3" y2="37.5"/>
  <line class="st0" x1="144.3" y1="37.5" x2="145.2" y2="37.5"/>
  <line class="st0" x1="148.1" y1="37.3" x2="148.5" y2="37.3"/>
  <line class="st0" x1="148.5" y1="37.3" x2="152" y2="33.3"/>
  <line class="st0" x1="154" y1="33.6" x2="157" y2="36.7"/>
  <line class="st0" x1="157" y1="36.7" x2="158.1" y2="37.5"/>
  <line class="st0" x1="160.5" y1="39.2" x2="161.2" y2="39.7"/>
  <line class="st0" x1="161.2" y1="39.7" x2="164.2" y2="43.5"/>
  <line class="st0" x1="166.3" y1="44.7" x2="169.7" y2="43.3"/>
  <line class="st0" x1="169.7" y1="43.3" x2="171.1" y2="41.7"/>
  <line class="st0" x1="173.1" y1="39.7" x2="173.9" y2="38.9"/>
  <line class="st0" x1="173.9" y1="38.9" x2="176.8" y2="35.2"/>
  <line class="st0" x1="178.9" y1="33.7" x2="182.3" y2="34.3"/>
  <line class="st0" x1="182.3" y1="34.3" x2="184.4" y2="33.3"/>
  <line class="st0" x1="187" y1="32.5" x2="190.8" y2="33.8"/>
  <line class="st0" x1="190.8" y1="33.8" x2="192.2" y2="32.6"/>
  <line class="st0" x1="194.4" y1="30.8" x2="195" y2="30.4"/>
  <line class="st0" x1="195" y1="30.4" x2="199.2" y2="31.4"/>
  <line class="st0" x1="199.2" y1="31.4" x2="199.8" y2="31.8"/>
  <line class="st0" x1="202.4" y1="33.1" x2="203.4" y2="33.6"/>
  <line class="st0" x1="203.4" y1="33.6" x2="207.6" y2="32.5"/>
  <line class="st0" x1="207.6" y1="32.5" x2="207.8" y2="32.6"/>
  <line class="st0" x1="210.4" y1="34" x2="211.9" y2="34.8"/>
  <line class="st0" x1="211.9" y1="34.8" x2="215.9" y2="35.5"/>
  <line class="st0" x1="218.7" y1="35.6" x2="220.3" y2="35.7"/>
  <line class="st0" x1="220.3" y1="35.7" x2="223.1" y2="38.9"/>
  <line class="st0" x1="225.1" y1="40.3" x2="228.8" y2="38.6"/>
  <line class="st0" x1="228.8" y1="38.6" x2="230" y2="39.8"/>
  <line class="st0" x1="232.2" y1="41.7" x2="233" y2="42.5"/>
  <line class="st0" x1="233" y1="42.5" x2="236.3" y2="39.2"/>
  <line class="st0" x1="238.8" y1="38.5" x2="241.4" y2="39"/>
  <line class="st0" x1="241.4" y1="39" x2="244.4" y2="38.3"/>
  <line class="st0" x1="247.2" y1="38.3" x2="249.9" y2="38.7"/>
  <line class="st0" x1="249.9" y1="38.7" x2="252.6" y2="40.2"/>
  <line class="st0" x1="255.2" y1="41" x2="258.3" y2="40.9"/>
  <line class="st0" x1="258.3" y1="40.9" x2="260.8" y2="39.8"/>
  <line class="st0" x1="263.3" y1="38.4" x2="266.7" y2="35.4"/>
  <line class="st0" x1="266.7" y1="35.4" x2="267.2" y2="34.4"/>
  <line class="st0" x1="268.5" y1="31.8" x2="271" y2="26.6"/>
  <polyline class="st1" points="30.3 56.8 34.6 47.2 38.8 44.2 43 53.4 47.2 59.7 51.4 61.6 55.7 51.5 59.9 50.4 64.1 53.5 68.3 58.4 72.6 57.4 76.8 49.3 81 37.9 85.2 33.8 89.4 36.7 93.7 49.9 97.9 53.6 102.1 56.4 106.3 50.2 110.5 49.8 114.8 40.4 119 40.2 123.2 40.1 127.4 50.2 131.7 63.4 135.9 74.4 140.1 82.3 144.3 85.1 148.5 92 152.8 92.9 157 90.8 161.2 71.7 165.4 54.6 169.7 34.5 173.9 32.5 178.1 37.6 182.3 38.5 186.5 46.5 190.8 48.6 195 53.6 199.2 45.6 203.4 46.7 207.6 48.7 211.9 51.8 216.1 48.8 220.3 44.9 224.5 47.2 228.8 48.3 233 60.5 237.2 63.6 241.4 66.8 245.6 60.8 249.9 51.8 254.1 41.5 258.3 31.5 262.5 26.4 266.7 25.6 271 21.6"/>
  <line class="st2" x1="21.4" y1="102.8" x2="21.4" y2="4.6"/>
  <line class="st2" x1="21.4" y1="102.8" x2="18.4" y2="102.8"/>
  <text class="st6" transform="translate(14.6 109.2) rotate(-90)"><tspan x="0" y="0">-.02</tspan></text>
  <line class="st2" x1="21.4" y1="53.9" x2="18.4" y2="53.9"/>
  <text class="st6" transform="translate(14.6 55.9) rotate(-90)"><tspan x="0" y="0">0</tspan></text>
  <line class="st2" x1="21.4" y1="4.9" x2="18.4" y2="4.9"/>
  <text class="st6" transform="translate(14.6 10.1) rotate(-90)"><tspan x="0" y="0">.02</tspan></text>
  <text class="st7" transform="translate(6.4 86.3) rotate(-90)"><tspan x="0" y="0">Change in capture rate</tspan></text>
  <line class="st2" x1="21.3" y1="53.9" x2="284.1" y2="53.9"/>
  <text class="st6" transform="translate(20.7 114.1)"><tspan x="0" y="0">-30</tspan></text>
  <text class="st6" transform="translate(62.9 114.1)"><tspan x="0" y="0">-20</tspan></text>
  <text class="st6" transform="translate(105.1 114.1)"><tspan x="0" y="0">-10</tspan></text>
  <text class="st6" transform="translate(150.7 114.1)"><tspan x="0" y="0">0</tspan></text>
  <text class="st6" transform="translate(190.8 114.1)"><tspan x="0" y="0">10</tspan></text>
  <text class="st6" transform="translate(233 114.1)"><tspan x="0" y="0">20</tspan></text>
  <text class="st6" transform="translate(275.2 114.1)"><tspan x="0" y="0">30</tspan></text>
  <text class="st7" transform="translate(111.1 123.4)"><tspan x="0" y="0">Days since pollution alert</tspan></text>
</svg>