<?xml version="1.0" encoding="UTF-8"?>
<svg id="Layer_1" data-name="Layer 1" xmlns="http://www.w3.org/2000/svg" viewBox="0 0 300.3 255.56">
  <defs>
    <style>
      .cls-1 {
        stroke-linejoin: round;
      }

      .cls-1, .cls-2, .cls-3, .cls-4, .cls-5, .cls-6 {
        fill: none;
      }

      .cls-1, .cls-3, .cls-5, .cls-6 {
        stroke-width: .86px;
      }

      .cls-1, .cls-6 {
        stroke: orange;
      }

      .cls-2 {
        stroke-width: 1.44px;
      }

      .cls-2, .cls-3, .cls-4, .cls-5, .cls-6 {
        stroke-miterlimit: 10;
      }

      .cls-2, .cls-4 {
        stroke: #000;
      }

      .cls-7 {
        font-size: 10.01px;
      }

      .cls-7, .cls-8, .cls-9 {
        font-family: Sarabun-Light, Sarabun;
        font-weight: 300;
      }

      .cls-8 {
        font-size: 8px;
      }

      .cls-3 {
        stroke: #b0b0b0;
      }

      .cls-4 {
        stroke-width: .58px;
      }

      .cls-9 {
        font-size: 5.83px;
      }

      .cls-5 {
        stroke: #6e8e84;
      }
    </style>
  </defs>
  <polyline class="cls-1" points="34.85 175.8 35.72 175.13 36.6 174.26 37.48 173.24 38.35 172.02 39.23 170.52 40.1 168.64 40.98 166.38 41.87 163.68 42.74 160.7 43.62 157.59 44.49 154.27 45.37 150.6 46.25 146.5 47.12 142.04 48 137.37 48.88 132.55 49.76 127.6 50.64 122.66 51.51 117.73 52.39 112.8 53.26 107.82 54.14 102.99 55.02 98.36 55.9 93.87 56.78 89.63 57.65 85.59 58.53 82.04 59.41 78.91 60.28 76.18 61.16 73.99 62.03 72.06 62.92 70.57 63.8 69.56 64.67 68.93 65.55 68.42 66.42 68.11 67.3 67.86 68.18 67.68 69.05 67.7 69.94 67.87 70.81 68.38 71.69 69.07 72.57 69.76 73.44 70.53 74.32 71.49 75.19 72.48 76.07 73.65 76.96 75.01 77.83 76.53 78.71 78.01 79.58 79.35 80.46 80.85 81.34 82.34 82.21 83.96 83.09 85.54 83.97 87.07 84.85 88.67 85.73 90.25 86.6 91.79 87.48 93.38 88.35 94.86 89.23 96.35 90.11 97.82 90.99 99.31 91.87 100.71 92.74 102.05 93.62 103.15 94.5 104.14 95.37 104.99 96.25 105.68 97.12 106.39 98.01 107.08 98.89 107.74 99.76 108.51 100.64 109.32 101.51 110.25 102.39 111.32 103.27 112.58 104.14 113.88 105.03 115.11 105.9 116.38 106.78 117.74 107.66 119.27 108.53 120.87 109.41 122.41 110.28 123.88 111.16 125.31 112.05 126.65 112.92 127.92 113.8 129.18 114.67 130.36 115.55 131.38 116.43 132.46 117.3 133.66 118.18 134.75 119.06 135.8 119.94 136.74 120.81 137.73 121.69 138.73 122.57 139.7 123.44 140.48 124.32 141.19 125.19 141.89 126.08 142.61 126.96 143.32 127.83 144.12 128.71 145 129.58 145.86 130.46 146.71 131.34 147.56 132.21 148.41 133.1 149.32 133.97 150.17 134.85 150.95 135.73 151.55 136.6 152.07 137.48 152.6 138.35 153.04 139.23 153.46 140.12 153.83 140.99 154.13 141.87 154.43 142.74 154.76 143.62 155.13 144.5 155.46 145.37 155.88 146.25 156.33 147.13 156.76 148.01 157.13 148.89 157.48 149.76 157.84 150.64 158.19 151.51 158.58 152.39 158.97 153.27 159.39 154.15 159.8 155.03 160.25 155.9 160.71 156.78 161.23 157.66 161.75 158.53 162.27 159.41 162.79 160.28 163.19 161.17 163.58 162.05 163.94 162.92 164.27 163.8 164.61 164.67 164.94 165.55 165.21 166.43 165.44 167.31 165.62 168.19 165.73 169.06 165.86 169.94 166 170.82 166.19 171.69 166.4 172.57 166.63 173.44 166.83 174.33 166.96 175.21 167.15 176.08 167.32 176.96 167.52 177.83 167.71 178.71 167.92 179.59 168.15 180.46 168.39 181.35 168.69 182.22 169.01 183.1 169.32 183.98 169.64 184.85 169.91 185.73 170.18 186.6 170.42 187.48 170.65 188.37 170.91 189.24 171.17 190.12 171.45 190.99 171.66 191.87 171.89 192.75 172.13 193.62 172.31 194.5 172.44 195.38 172.55 196.26 172.64 197.14 172.73 198.01 172.83 198.89 172.87 199.76 172.9 200.64 172.94 201.52 172.98 202.4 172.99 203.28 173.02 204.15 173.07 205.03 173.13 205.91 173.2 206.78 173.26 207.66 173.32 208.53 173.42 209.42 173.5 210.29 173.58 211.17 173.6 212.05 173.64 212.92 173.69 213.8 173.72 214.67 173.74 215.55 173.8 216.44 173.85 217.31 173.9 218.19 173.96 219.06 174.03 219.94 174.11 220.82 174.18 221.69 174.25 222.57 174.33 223.45 174.42 224.33 174.54 225.21 174.67 226.08 174.8 226.96 174.96 227.83 175.14 228.71 175.29 229.59 175.44 230.47 175.59 231.35 175.74 232.22 175.88 233.1 175.97 233.98 176.08 234.85 176.17 235.73 176.26 236.6 176.33 237.49 176.39 238.37 176.43 239.24 176.44 240.12 176.42 240.99 176.42 241.87 176.42 242.75 176.43 243.62 176.43 244.51 176.41 245.38 176.39 246.26 176.38 247.14 176.36 248.01 176.33 248.89 176.31 249.76 176.31 250.64 176.3 251.53 176.3 252.4 176.32 253.28 176.34 254.15 176.34 255.03 176.35 255.91 176.35 256.78 176.35 257.66 176.34 258.54 176.33 259.42 176.34 260.3 176.35 261.17 176.36 262.05 176.38 262.92 176.42 263.8 176.46 264.68 176.47 265.56 176.46 266.44 176.47 267.31 176.48 268.19 176.49 269.07 176.51 269.94 176.49 270.82 176.49 271.69 176.49 272.58 176.5 273.46 176.5 274.33 176.49 275.21 176.5 276.08 176.51 276.96 176.52 277.84 176.55 278.71 176.58 279.6 176.6 280.47 176.59 281.35 176.59 282.23 176.61 283.1 176.61 283.98 176.62 284.85 176.62 285.73 176.64 286.62 176.68 287.49 176.71 288.37 176.75 289.24 176.81 290.12 176.87 291 176.93 291.87 176.99 292.75 177.05 293.63 177.12 294.51 177.18 295.38 177.23 296.26 177.27 297.14 177.3"/>
  <line class="cls-5" x1="34.85" y1="176.58" x2="35.72" y2="176.12"/>
  <line class="cls-5" x1="35.72" y1="176.12" x2="36.6" y2="175.59"/>
  <line class="cls-5" x1="36.6" y1="175.59" x2="37.48" y2="174.88"/>
  <line class="cls-5" x1="37.48" y1="174.88" x2="38.35" y2="173.86"/>
  <line class="cls-5" x1="38.35" y1="173.86" x2="39.08" y2="172.82"/>
  <line class="cls-5" x1="40.53" y1="170.33" x2="40.98" y2="169.45"/>
  <line class="cls-5" x1="40.98" y1="169.45" x2="41.87" y2="167.42"/>
  <line class="cls-5" x1="41.87" y1="167.42" x2="42.74" y2="165.02"/>
  <line class="cls-5" x1="43.58" y1="162.26" x2="43.62" y2="162.15"/>
  <line class="cls-5" x1="43.62" y1="162.15" x2="44.49" y2="158.56"/>
  <line class="cls-5" x1="44.49" y1="158.56" x2="44.87" y2="156.65"/>
  <line class="cls-5" x1="45.45" y1="153.82" x2="46.25" y2="149.44"/>
  <line class="cls-5" x1="46.25" y1="149.44" x2="46.46" y2="148.15"/>
  <line class="cls-5" x1="46.93" y1="145.31" x2="47.12" y2="144.15"/>
  <line class="cls-5" x1="47.12" y1="144.15" x2="47.82" y2="139.61"/>
  <line class="cls-5" x1="48.24" y1="136.76" x2="48.88" y2="132.28"/>
  <line class="cls-5" x1="48.88" y1="132.28" x2="49.04" y2="131.06"/>
  <line class="cls-5" x1="49.4" y1="128.2" x2="49.76" y2="125.57"/>
  <line class="cls-5" x1="49.76" y1="125.57" x2="50.15" y2="122.49"/>
  <line class="cls-5" x1="50.53" y1="119.63" x2="50.64" y2="118.72"/>
  <line class="cls-5" x1="50.64" y1="118.72" x2="51.23" y2="113.91"/>
  <line class="cls-5" x1="51.58" y1="111.05" x2="52.27" y2="105.33"/>
  <line class="cls-5" x1="52.6" y1="102.46" x2="53.26" y2="96.79"/>
  <line class="cls-5" x1="53.26" y1="96.79" x2="53.27" y2="96.74"/>
  <line class="cls-5" x1="53.61" y1="93.88" x2="54.14" y2="89.3"/>
  <line class="cls-5" x1="54.14" y1="89.3" x2="54.27" y2="88.16"/>
  <line class="cls-5" x1="54.61" y1="85.3" x2="55.02" y2="81.76"/>
  <line class="cls-5" x1="55.02" y1="81.76" x2="55.29" y2="79.58"/>
  <line class="cls-5" x1="55.63" y1="76.71" x2="55.9" y2="74.61"/>
  <line class="cls-5" x1="55.9" y1="74.61" x2="56.35" y2="71"/>
  <line class="cls-5" x1="56.71" y1="68.14" x2="56.78" y2="67.6"/>
  <line class="cls-5" x1="56.78" y1="67.6" x2="57.47" y2="62.43"/>
  <line class="cls-5" x1="57.86" y1="59.57" x2="58.53" y2="55.07"/>
  <line class="cls-5" x1="58.53" y1="55.07" x2="58.71" y2="53.87"/>
  <line class="cls-5" x1="59.15" y1="51.03" x2="59.41" y2="49.3"/>
  <line class="cls-5" x1="59.41" y1="49.3" x2="60.06" y2="45.33"/>
  <line class="cls-5" x1="60.54" y1="42.5" x2="61.16" y2="39.11"/>
  <line class="cls-5" x1="61.16" y1="39.11" x2="61.66" y2="36.84"/>
  <line class="cls-5" x1="62.32" y1="34.04" x2="62.92" y2="31.76"/>
  <line class="cls-5" x1="62.92" y1="31.76" x2="63.8" y2="29.39"/>
  <line class="cls-5" x1="63.8" y1="29.39" x2="64.13" y2="28.58"/>
  <line class="cls-5" x1="65.46" y1="26.04" x2="65.55" y2="25.9"/>
  <line class="cls-5" x1="65.55" y1="25.9" x2="66.42" y2="24.89"/>
  <line class="cls-5" x1="66.42" y1="24.89" x2="67.3" y2="24.44"/>
  <line class="cls-5" x1="67.3" y1="24.44" x2="68.18" y2="24.48"/>
  <line class="cls-5" x1="68.18" y1="24.48" x2="69.05" y2="25.36"/>
  <line class="cls-5" x1="69.05" y1="25.36" x2="69.6" y2="26.38"/>
  <line class="cls-5" x1="70.91" y1="28.94" x2="71.69" y2="30.74"/>
  <line class="cls-5" x1="71.69" y1="30.74" x2="72.57" y2="33.01"/>
  <line class="cls-5" x1="72.57" y1="33.01" x2="73" y2="34.31"/>
  <line class="cls-5" x1="73.92" y1="37.03" x2="74.32" y2="38.24"/>
  <line class="cls-5" x1="74.32" y1="38.24" x2="75.19" y2="41.21"/>
  <line class="cls-5" x1="75.19" y1="41.21" x2="75.59" y2="42.55"/>
  <line class="cls-5" x1="76.38" y1="45.32" x2="76.96" y2="47.35"/>
  <line class="cls-5" x1="76.96" y1="47.35" x2="77.83" y2="50.57"/>
  <line class="cls-5" x1="77.83" y1="50.57" x2="77.91" y2="50.88"/>
  <line class="cls-5" x1="78.66" y1="53.66" x2="78.71" y2="53.85"/>
  <line class="cls-5" x1="78.71" y1="53.85" x2="79.58" y2="56.87"/>
  <line class="cls-5" x1="79.58" y1="56.87" x2="80.25" y2="59.2"/>
  <line class="cls-5" x1="81.03" y1="61.97" x2="81.34" y2="63.09"/>
  <line class="cls-5" x1="81.34" y1="63.09" x2="82.21" y2="66.23"/>
  <line class="cls-5" x1="82.21" y1="66.23" x2="82.57" y2="67.52"/>
  <line class="cls-5" x1="83.33" y1="70.29" x2="83.97" y2="72.57"/>
  <line class="cls-5" x1="83.97" y1="72.57" x2="84.85" y2="75.85"/>
  <line class="cls-5" x1="85.57" y1="78.64" x2="85.73" y2="79.26"/>
  <line class="cls-5" x1="85.73" y1="79.26" x2="86.6" y2="82.58"/>
  <line class="cls-5" x1="86.6" y1="82.58" x2="87.07" y2="84.2"/>
  <line class="cls-5" x1="87.87" y1="86.96" x2="88.35" y2="88.67"/>
  <line class="cls-5" x1="88.35" y1="88.67" x2="89.23" y2="91.49"/>
  <line class="cls-5" x1="89.23" y1="91.49" x2="89.55" y2="92.47"/>
  <line class="cls-5" x1="90.42" y1="95.22" x2="90.99" y2="97.01"/>
  <line class="cls-5" x1="90.99" y1="97.01" x2="91.87" y2="99.65"/>
  <line class="cls-5" x1="91.87" y1="99.65" x2="92.23" y2="100.69"/>
  <line class="cls-5" x1="93.16" y1="103.42" x2="93.62" y2="104.76"/>
  <line class="cls-5" x1="93.62" y1="104.76" x2="94.5" y2="107.08"/>
  <line class="cls-5" x1="94.5" y1="107.08" x2="95.21" y2="108.8"/>
  <line class="cls-5" x1="96.38" y1="111.43" x2="97.12" y2="113.11"/>
  <line class="cls-5" x1="97.12" y1="113.11" x2="98.01" y2="115.23"/>
  <line class="cls-5" x1="98.01" y1="115.23" x2="98.64" y2="116.74"/>
  <line class="cls-5" x1="99.83" y1="119.36" x2="100.64" y2="121"/>
  <line class="cls-5" x1="100.64" y1="121" x2="101.51" y2="122.62"/>
  <line class="cls-5" x1="101.51" y1="122.62" x2="102.39" y2="124.41"/>
  <line class="cls-5" x1="102.39" y1="124.41" x2="102.43" y2="124.5"/>
  <line class="cls-5" x1="103.71" y1="127.08" x2="104.14" y2="127.94"/>
  <line class="cls-5" x1="104.14" y1="127.94" x2="105.03" y2="129.76"/>
  <line class="cls-5" x1="105.03" y1="129.76" x2="105.9" y2="131.33"/>
  <line class="cls-5" x1="105.9" y1="131.33" x2="106.43" y2="132.14"/>
  <line class="cls-5" x1="108.03" y1="134.54" x2="108.53" y2="135.32"/>
  <line class="cls-5" x1="108.53" y1="135.32" x2="109.41" y2="136.67"/>
  <line class="cls-5" x1="109.41" y1="136.67" x2="110.28" y2="138.14"/>
  <line class="cls-5" x1="110.28" y1="138.14" x2="111.07" y2="139.44"/>
  <line class="cls-5" x1="112.73" y1="141.79" x2="112.92" y2="142.03"/>
  <line class="cls-5" x1="112.92" y1="142.03" x2="113.8" y2="143.21"/>
  <line class="cls-5" x1="113.8" y1="143.21" x2="114.67" y2="144.33"/>
  <line class="cls-5" x1="114.67" y1="144.33" x2="115.55" y2="145.36"/>
  <line class="cls-5" x1="115.55" y1="145.36" x2="116.31" y2="146.31"/>
  <line class="cls-5" x1="118.42" y1="148.26" x2="119.06" y2="148.8"/>
  <line class="cls-5" x1="119.06" y1="148.8" x2="119.94" y2="149.68"/>
  <line class="cls-5" x1="119.94" y1="149.68" x2="120.81" y2="150.55"/>
  <line class="cls-5" x1="120.81" y1="150.55" x2="121.69" y2="151.39"/>
  <line class="cls-5" x1="121.69" y1="151.39" x2="122.52" y2="152.3"/>
  <line class="cls-5" x1="124.5" y1="154.41" x2="125.19" y2="155.1"/>
  <line class="cls-5" x1="125.19" y1="155.1" x2="126.08" y2="155.74"/>
  <line class="cls-5" x1="126.08" y1="155.74" x2="126.96" y2="156.32"/>
  <line class="cls-5" x1="126.96" y1="156.32" x2="127.83" y2="156.98"/>
  <line class="cls-5" x1="127.83" y1="156.98" x2="128.71" y2="157.63"/>
  <line class="cls-5" x1="128.71" y1="157.63" x2="129.08" y2="157.87"/>
  <line class="cls-5" x1="131.6" y1="159.27" x2="132.21" y2="159.66"/>
  <line class="cls-5" x1="132.21" y1="159.66" x2="133.1" y2="160.07"/>
  <line class="cls-5" x1="133.1" y1="160.07" x2="133.97" y2="160.52"/>
  <line class="cls-5" x1="133.97" y1="160.52" x2="134.85" y2="160.93"/>
  <line class="cls-5" x1="134.85" y1="160.93" x2="135.73" y2="161.45"/>
  <line class="cls-5" x1="135.73" y1="161.45" x2="136.6" y2="162.01"/>
  <line class="cls-5" x1="136.6" y1="162.01" x2="136.64" y2="162.03"/>
  <line class="cls-5" x1="139.13" y1="163.48" x2="139.23" y2="163.54"/>
  <line class="cls-5" x1="139.23" y1="163.54" x2="140.12" y2="164.22"/>
  <line class="cls-5" x1="140.12" y1="164.22" x2="140.99" y2="164.79"/>
  <line class="cls-5" x1="140.99" y1="164.79" x2="141.87" y2="165.19"/>
  <line class="cls-5" x1="141.87" y1="165.19" x2="142.74" y2="165.49"/>
  <line class="cls-5" x1="142.74" y1="165.49" x2="143.62" y2="165.83"/>
  <line class="cls-5" x1="143.62" y1="165.83" x2="144.25" y2="166.04"/>
  <line class="cls-5" x1="146.98" y1="166.92" x2="147.13" y2="166.97"/>
  <line class="cls-5" x1="147.13" y1="166.97" x2="148.01" y2="167.25"/>
  <line class="cls-5" x1="148.01" y1="167.25" x2="148.89" y2="167.44"/>
  <line class="cls-5" x1="148.89" y1="167.44" x2="149.76" y2="167.62"/>
  <line class="cls-5" x1="149.76" y1="167.62" x2="150.64" y2="167.8"/>
  <line class="cls-5" x1="150.64" y1="167.8" x2="151.51" y2="168.07"/>
  <line class="cls-5" x1="151.51" y1="168.07" x2="152.39" y2="168.28"/>
  <line class="cls-5" x1="152.39" y1="168.28" x2="152.58" y2="168.31"/>
  <line class="cls-5" x1="155.41" y1="168.72" x2="155.9" y2="168.76"/>
  <line class="cls-5" x1="155.9" y1="168.76" x2="156.78" y2="168.9"/>
  <line class="cls-5" x1="156.78" y1="168.9" x2="157.66" y2="169.06"/>
  <line class="cls-5" x1="157.66" y1="169.06" x2="158.53" y2="169.24"/>
  <line class="cls-5" x1="158.53" y1="169.24" x2="159.41" y2="169.47"/>
  <line class="cls-5" x1="159.41" y1="169.47" x2="160.28" y2="169.73"/>
  <line class="cls-5" x1="160.28" y1="169.73" x2="161.02" y2="169.99"/>
  <line class="cls-5" x1="163.76" y1="170.87" x2="163.8" y2="170.88"/>
  <line class="cls-5" x1="163.8" y1="170.88" x2="164.67" y2="171.11"/>
  <line class="cls-5" x1="164.67" y1="171.11" x2="165.55" y2="171.37"/>
  <line class="cls-5" x1="165.55" y1="171.37" x2="166.43" y2="171.58"/>
  <line class="cls-5" x1="166.43" y1="171.58" x2="167.31" y2="171.79"/>
  <line class="cls-5" x1="167.31" y1="171.79" x2="168.19" y2="172.06"/>
  <line class="cls-5" x1="168.19" y1="172.06" x2="169.06" y2="172.24"/>
  <line class="cls-5" x1="169.06" y1="172.24" x2="169.35" y2="172.28"/>
  <line class="cls-5" x1="172.22" y1="172.49" x2="172.57" y2="172.52"/>
  <line class="cls-5" x1="172.57" y1="172.52" x2="173.44" y2="172.62"/>
  <line class="cls-5" x1="173.44" y1="172.62" x2="174.33" y2="172.7"/>
  <line class="cls-5" x1="174.33" y1="172.7" x2="175.21" y2="172.79"/>
  <line class="cls-5" x1="175.21" y1="172.79" x2="176.08" y2="172.86"/>
  <line class="cls-5" x1="176.08" y1="172.86" x2="176.96" y2="172.9"/>
  <line class="cls-5" x1="176.96" y1="172.9" x2="177.83" y2="172.97"/>
  <line class="cls-5" x1="177.83" y1="172.97" x2="177.95" y2="172.98"/>
  <line class="cls-5" x1="180.83" y1="173.19" x2="181.35" y2="173.24"/>
  <line class="cls-5" x1="181.35" y1="173.24" x2="182.22" y2="173.33"/>
  <line class="cls-5" x1="182.22" y1="173.33" x2="183.1" y2="173.42"/>
  <line class="cls-5" x1="183.1" y1="173.42" x2="183.98" y2="173.51"/>
  <line class="cls-5" x1="183.98" y1="173.51" x2="184.85" y2="173.6"/>
  <line class="cls-5" x1="184.85" y1="173.6" x2="185.73" y2="173.7"/>
  <line class="cls-5" x1="185.73" y1="173.7" x2="186.55" y2="173.82"/>
  <line class="cls-5" x1="189.42" y1="174.11" x2="190.12" y2="174.2"/>
  <line class="cls-5" x1="190.12" y1="174.2" x2="190.99" y2="174.28"/>
  <line class="cls-5" x1="190.99" y1="174.28" x2="191.87" y2="174.29"/>
  <line class="cls-5" x1="191.87" y1="174.29" x2="192.75" y2="174.35"/>
  <line class="cls-5" x1="192.75" y1="174.35" x2="193.62" y2="174.45"/>
  <line class="cls-5" x1="193.62" y1="174.45" x2="194.5" y2="174.52"/>
  <line class="cls-5" x1="194.5" y1="174.52" x2="195.16" y2="174.55"/>
  <line class="cls-5" x1="198.02" y1="174.87" x2="198.89" y2="174.94"/>
  <line class="cls-5" x1="198.89" y1="174.94" x2="199.76" y2="174.99"/>
  <line class="cls-5" x1="199.76" y1="174.99" x2="200.64" y2="175.04"/>
  <line class="cls-5" x1="200.64" y1="175.04" x2="201.52" y2="175.12"/>
  <line class="cls-5" x1="201.52" y1="175.12" x2="202.4" y2="175.18"/>
  <line class="cls-5" x1="202.4" y1="175.18" x2="203.28" y2="175.27"/>
  <line class="cls-5" x1="203.28" y1="175.27" x2="203.76" y2="175.31"/>
  <line class="cls-5" x1="206.64" y1="175.46" x2="206.78" y2="175.46"/>
  <line class="cls-5" x1="206.78" y1="175.46" x2="207.66" y2="175.5"/>
  <line class="cls-5" x1="207.66" y1="175.5" x2="208.53" y2="175.58"/>
  <line class="cls-5" x1="208.53" y1="175.58" x2="209.42" y2="175.67"/>
  <line class="cls-5" x1="209.42" y1="175.67" x2="210.29" y2="175.73"/>
  <line class="cls-5" x1="210.29" y1="175.73" x2="211.17" y2="175.77"/>
  <line class="cls-5" x1="211.17" y1="175.77" x2="212.05" y2="175.8"/>
  <line class="cls-5" x1="212.05" y1="175.8" x2="212.39" y2="175.81"/>
  <line class="cls-5" x1="215.27" y1="175.88" x2="215.55" y2="175.88"/>
  <line class="cls-5" x1="215.55" y1="175.88" x2="216.44" y2="175.86"/>
  <line class="cls-5" x1="216.44" y1="175.86" x2="217.31" y2="175.83"/>
  <line class="cls-5" x1="217.31" y1="175.83" x2="218.19" y2="175.77"/>
  <line class="cls-5" x1="218.19" y1="175.77" x2="219.06" y2="175.74"/>
  <line class="cls-5" x1="219.06" y1="175.74" x2="219.94" y2="175.74"/>
  <line class="cls-5" x1="219.94" y1="175.74" x2="220.82" y2="175.77"/>
  <line class="cls-5" x1="220.82" y1="175.77" x2="221.03" y2="175.77"/>
  <line class="cls-5" x1="223.91" y1="175.79" x2="224.33" y2="175.79"/>
  <line class="cls-5" x1="224.33" y1="175.79" x2="225.21" y2="175.83"/>
  <line class="cls-5" x1="225.21" y1="175.83" x2="226.08" y2="175.89"/>
  <line class="cls-5" x1="226.08" y1="175.89" x2="226.96" y2="175.93"/>
  <line class="cls-5" x1="226.96" y1="175.93" x2="227.83" y2="176.01"/>
  <line class="cls-5" x1="227.83" y1="176.01" x2="228.71" y2="176.09"/>
  <line class="cls-5" x1="228.71" y1="176.09" x2="229.59" y2="176.18"/>
  <line class="cls-5" x1="229.59" y1="176.18" x2="229.67" y2="176.19"/>
  <line class="cls-5" x1="232.54" y1="176.35" x2="233.1" y2="176.35"/>
  <line class="cls-5" x1="233.1" y1="176.35" x2="233.98" y2="176.34"/>
  <line class="cls-5" x1="233.98" y1="176.34" x2="234.85" y2="176.26"/>
  <line class="cls-5" x1="234.85" y1="176.26" x2="235.73" y2="176.18"/>
  <line class="cls-5" x1="235.73" y1="176.18" x2="236.6" y2="176.11"/>
  <line class="cls-5" x1="236.6" y1="176.11" x2="237.49" y2="176.06"/>
  <line class="cls-5" x1="237.49" y1="176.06" x2="238.3" y2="176.02"/>
  <line class="cls-5" x1="241.17" y1="176.13" x2="241.87" y2="176.18"/>
  <line class="cls-5" x1="241.87" y1="176.18" x2="242.75" y2="176.25"/>
  <line class="cls-5" x1="242.75" y1="176.25" x2="243.62" y2="176.34"/>
  <line class="cls-5" x1="243.62" y1="176.34" x2="244.51" y2="176.4"/>
  <line class="cls-5" x1="244.51" y1="176.4" x2="245.38" y2="176.44"/>
  <line class="cls-5" x1="245.38" y1="176.44" x2="246.26" y2="176.44"/>
  <line class="cls-5" x1="246.26" y1="176.44" x2="246.93" y2="176.43"/>
  <line class="cls-5" x1="249.8" y1="176.4" x2="250.64" y2="176.4"/>
  <line class="cls-5" x1="250.64" y1="176.4" x2="251.53" y2="176.42"/>
  <line class="cls-5" x1="251.53" y1="176.42" x2="252.4" y2="176.42"/>
  <line class="cls-5" x1="252.4" y1="176.42" x2="253.28" y2="176.45"/>
  <line class="cls-5" x1="253.28" y1="176.45" x2="254.15" y2="176.48"/>
  <line class="cls-5" x1="254.15" y1="176.48" x2="255.03" y2="176.53"/>
  <line class="cls-5" x1="255.03" y1="176.53" x2="255.56" y2="176.58"/>
  <line class="cls-5" x1="258.44" y1="176.75" x2="258.54" y2="176.75"/>
  <line class="cls-5" x1="258.54" y1="176.75" x2="259.42" y2="176.8"/>
  <line class="cls-5" x1="259.42" y1="176.8" x2="260.3" y2="176.84"/>
  <line class="cls-5" x1="260.3" y1="176.84" x2="261.17" y2="176.9"/>
  <line class="cls-5" x1="261.17" y1="176.9" x2="262.05" y2="176.96"/>
  <line class="cls-5" x1="262.05" y1="176.96" x2="262.92" y2="177.01"/>
  <line class="cls-5" x1="262.92" y1="177.01" x2="263.8" y2="177"/>
  <line class="cls-5" x1="263.8" y1="177" x2="264.21" y2="176.98"/>
  <line class="cls-5" x1="267.09" y1="176.94" x2="267.31" y2="176.94"/>
  <line class="cls-5" x1="267.31" y1="176.94" x2="268.19" y2="176.95"/>
  <line class="cls-5" x1="268.19" y1="176.95" x2="269.07" y2="176.95"/>
  <line class="cls-5" x1="269.07" y1="176.95" x2="269.94" y2="176.93"/>
  <line class="cls-5" x1="269.94" y1="176.93" x2="270.82" y2="176.91"/>
  <line class="cls-5" x1="270.82" y1="176.91" x2="271.69" y2="176.92"/>
  <line class="cls-5" x1="271.69" y1="176.92" x2="272.58" y2="176.95"/>
  <line class="cls-5" x1="272.58" y1="176.95" x2="272.85" y2="176.96"/>
  <line class="cls-5" x1="275.73" y1="177.08" x2="276.08" y2="177.09"/>
  <line class="cls-5" x1="276.08" y1="177.09" x2="276.96" y2="177.09"/>
  <line class="cls-5" x1="276.96" y1="177.09" x2="277.84" y2="177.1"/>
  <line class="cls-5" x1="277.84" y1="177.1" x2="278.71" y2="177.13"/>
  <line class="cls-5" x1="278.71" y1="177.13" x2="279.6" y2="177.16"/>
  <line class="cls-5" x1="279.6" y1="177.16" x2="280.47" y2="177.2"/>
  <line class="cls-5" x1="280.47" y1="177.2" x2="281.35" y2="177.22"/>
  <line class="cls-5" x1="281.35" y1="177.22" x2="281.49" y2="177.22"/>
  <line class="cls-5" x1="284.37" y1="177.19" x2="284.85" y2="177.18"/>
  <line class="cls-5" x1="284.85" y1="177.18" x2="285.73" y2="177.17"/>
  <line class="cls-5" x1="285.73" y1="177.17" x2="286.62" y2="177.18"/>
  <line class="cls-5" x1="286.62" y1="177.18" x2="287.49" y2="177.19"/>
  <line class="cls-5" x1="287.49" y1="177.19" x2="288.37" y2="177.2"/>
  <line class="cls-5" x1="288.37" y1="177.2" x2="289.24" y2="177.2"/>
  <line class="cls-5" x1="289.24" y1="177.2" x2="290.12" y2="177.19"/>
  <line class="cls-5" x1="290.12" y1="177.19" x2="290.13" y2="177.19"/>
  <line class="cls-5" x1="293.01" y1="177.23" x2="293.63" y2="177.24"/>
  <line class="cls-5" x1="293.63" y1="177.24" x2="294.51" y2="177.26"/>
  <line class="cls-5" x1="294.51" y1="177.26" x2="295.38" y2="177.27"/>
  <line class="cls-5" x1="295.38" y1="177.27" x2="296.26" y2="177.29"/>
  <line class="cls-5" x1="296.26" y1="177.29" x2="297.14" y2="177.3"/>
  <line class="cls-3" x1="34.85" y1="175.82" x2="35.72" y2="175.36"/>
  <line class="cls-3" x1="35.72" y1="175.36" x2="36.6" y2="174.77"/>
  <line class="cls-3" x1="36.6" y1="174.77" x2="37.48" y2="173.96"/>
  <line class="cls-3" x1="37.48" y1="173.96" x2="38.35" y2="172.88"/>
  <line class="cls-3" x1="38.35" y1="172.88" x2="38.98" y2="171.94"/>
  <line class="cls-3" x1="40.3" y1="169.39" x2="40.98" y2="167.7"/>
  <line class="cls-3" x1="40.98" y1="167.7" x2="41.87" y2="165.1"/>
  <line class="cls-3" x1="41.87" y1="165.1" x2="42.19" y2="163.95"/>
  <line class="cls-3" x1="42.94" y1="161.18" x2="43.62" y2="158.43"/>
  <line class="cls-3" x1="43.62" y1="158.43" x2="44.21" y2="155.54"/>
  <line class="cls-3" x1="44.75" y1="152.73" x2="45.37" y2="149.26"/>
  <line class="cls-3" x1="45.37" y1="149.26" x2="45.73" y2="147.05"/>
  <line class="cls-3" x1="46.2" y1="144.2" x2="46.25" y2="143.91"/>
  <line class="cls-3" x1="46.25" y1="143.91" x2="47.08" y2="138.51"/>
  <line class="cls-3" x1="47.49" y1="135.66" x2="48" y2="132.12"/>
  <line class="cls-3" x1="48" y1="132.12" x2="48.3" y2="129.95"/>
  <line class="cls-3" x1="48.67" y1="127.09" x2="48.88" y2="125.59"/>
  <line class="cls-3" x1="48.88" y1="125.59" x2="49.41" y2="121.38"/>
  <line class="cls-3" x1="49.79" y1="118.52" x2="50.51" y2="112.8"/>
  <line class="cls-3" x1="50.86" y1="109.95" x2="51.51" y2="104.61"/>
  <line class="cls-3" x1="51.51" y1="104.61" x2="51.56" y2="104.23"/>
  <line class="cls-3" x1="51.91" y1="101.37" x2="52.39" y2="97.56"/>
  <line class="cls-3" x1="52.39" y1="97.56" x2="52.62" y2="95.65"/>
  <line class="cls-3" x1="52.96" y1="92.79" x2="53.26" y2="90.27"/>
  <line class="cls-3" x1="53.26" y1="90.27" x2="53.67" y2="87.08"/>
  <line class="cls-3" x1="54.03" y1="84.22" x2="54.14" y2="83.38"/>
  <line class="cls-3" x1="54.14" y1="83.38" x2="54.83" y2="78.51"/>
  <line class="cls-3" x1="55.23" y1="75.66" x2="55.9" y2="70.99"/>
  <line class="cls-3" x1="55.9" y1="70.99" x2="56.05" y2="69.95"/>
  <line class="cls-3" x1="56.46" y1="67.1" x2="56.78" y2="64.88"/>
  <line class="cls-3" x1="56.78" y1="64.88" x2="57.31" y2="61.41"/>
  <line class="cls-3" x1="57.76" y1="58.56" x2="58.53" y2="53.76"/>
  <line class="cls-3" x1="58.53" y1="53.76" x2="58.69" y2="52.88"/>
  <line class="cls-3" x1="59.22" y1="50.04" x2="59.41" y2="48.99"/>
  <line class="cls-3" x1="59.41" y1="48.99" x2="60.28" y2="45.15"/>
  <line class="cls-3" x1="60.28" y1="45.15" x2="60.45" y2="44.42"/>
  <line class="cls-3" x1="61.13" y1="41.62" x2="61.16" y2="41.51"/>
  <line class="cls-3" x1="61.16" y1="41.51" x2="62.03" y2="38.39"/>
  <line class="cls-3" x1="62.03" y1="38.39" x2="62.87" y2="36.13"/>
  <line class="cls-3" x1="63.98" y1="33.48" x2="64.67" y2="32.31"/>
  <line class="cls-3" x1="64.67" y1="32.31" x2="65.55" y2="31.74"/>
  <line class="cls-3" x1="65.55" y1="31.74" x2="66.42" y2="31.37"/>
  <line class="cls-3" x1="66.42" y1="31.37" x2="67.3" y2="31.54"/>
  <line class="cls-3" x1="67.3" y1="31.54" x2="68.18" y2="32.34"/>
  <line class="cls-3" x1="68.18" y1="32.34" x2="68.46" y2="32.53"/>
  <line class="cls-3" x1="70.36" y1="34.62" x2="70.81" y2="35.39"/>
  <line class="cls-3" x1="70.81" y1="35.39" x2="71.69" y2="37.1"/>
  <line class="cls-3" x1="71.69" y1="37.1" x2="72.57" y2="39.55"/>
  <line class="cls-3" x1="72.57" y1="39.55" x2="72.68" y2="39.88"/>
  <line class="cls-3" x1="73.54" y1="42.63" x2="74.32" y2="44.74"/>
  <line class="cls-3" x1="74.32" y1="44.74" x2="75.19" y2="47.15"/>
  <line class="cls-3" x1="75.19" y1="47.15" x2="75.48" y2="48.05"/>
  <line class="cls-3" x1="76.31" y1="50.8" x2="76.96" y2="53.06"/>
  <line class="cls-3" x1="76.96" y1="53.06" x2="77.8" y2="56.37"/>
  <line class="cls-3" x1="78.49" y1="59.17" x2="78.71" y2="60.09"/>
  <line class="cls-3" x1="78.71" y1="60.09" x2="79.58" y2="63.19"/>
  <line class="cls-3" x1="79.58" y1="63.19" x2="80.01" y2="64.73"/>
  <line class="cls-3" x1="80.82" y1="67.49" x2="81.34" y2="69.29"/>
  <line class="cls-3" x1="81.34" y1="69.29" x2="82.21" y2="71.75"/>
  <line class="cls-3" x1="82.21" y1="71.75" x2="82.59" y2="72.96"/>
  <line class="cls-3" x1="83.41" y1="75.73" x2="83.97" y2="77.81"/>
  <line class="cls-3" x1="83.97" y1="77.81" x2="84.85" y2="80.71"/>
  <line class="cls-3" x1="84.85" y1="80.71" x2="85.02" y2="81.26"/>
  <line class="cls-3" x1="85.9" y1="84.01" x2="86.6" y2="86.03"/>
  <line class="cls-3" x1="86.6" y1="86.03" x2="87.48" y2="88.05"/>
  <line class="cls-3" x1="87.48" y1="88.05" x2="88.08" y2="89.34"/>
  <line class="cls-3" x1="89.2" y1="91.99" x2="89.23" y2="92.07"/>
  <line class="cls-3" x1="89.23" y1="92.07" x2="90.11" y2="94.16"/>
  <line class="cls-3" x1="90.11" y1="94.16" x2="90.99" y2="96.27"/>
  <line class="cls-3" x1="90.99" y1="96.27" x2="91.37" y2="97.33"/>
  <line class="cls-3" x1="92.36" y1="100.03" x2="92.74" y2="101.07"/>
  <line class="cls-3" x1="92.74" y1="101.07" x2="93.62" y2="103.34"/>
  <line class="cls-3" x1="93.62" y1="103.34" x2="94.39" y2="105.42"/>
  <line class="cls-3" x1="95.36" y1="108.14" x2="95.37" y2="108.16"/>
  <line class="cls-3" x1="95.37" y1="108.16" x2="96.25" y2="110.6"/>
  <line class="cls-3" x1="96.25" y1="110.6" x2="97.12" y2="112.96"/>
  <line class="cls-3" x1="97.12" y1="112.96" x2="97.36" y2="113.55"/>
  <line class="cls-3" x1="98.44" y1="116.21" x2="98.89" y2="117.2"/>
  <line class="cls-3" x1="98.89" y1="117.2" x2="99.76" y2="119.08"/>
  <line class="cls-3" x1="99.76" y1="119.08" x2="100.64" y2="120.86"/>
  <line class="cls-3" x1="100.64" y1="120.86" x2="100.93" y2="121.42"/>
  <line class="cls-3" x1="102.24" y1="123.98" x2="102.39" y2="124.28"/>
  <line class="cls-3" x1="102.39" y1="124.28" x2="103.27" y2="125.9"/>
  <line class="cls-3" x1="103.27" y1="125.9" x2="104.14" y2="127.38"/>
  <line class="cls-3" x1="104.14" y1="127.38" x2="105.03" y2="129.02"/>
  <line class="cls-3" x1="106.39" y1="131.55" x2="106.78" y2="132.25"/>
  <line class="cls-3" x1="106.78" y1="132.25" x2="107.66" y2="133.88"/>
  <line class="cls-3" x1="107.66" y1="133.88" x2="108.53" y2="135.45"/>
  <line class="cls-3" x1="108.53" y1="135.45" x2="109.23" y2="136.57"/>
  <line class="cls-3" x1="110.79" y1="138.98" x2="111.16" y2="139.49"/>
  <line class="cls-3" x1="111.16" y1="139.49" x2="112.05" y2="140.53"/>
  <line class="cls-3" x1="112.05" y1="140.53" x2="112.92" y2="141.79"/>
  <line class="cls-3" x1="112.92" y1="141.79" x2="113.8" y2="143.1"/>
  <line class="cls-3" x1="113.8" y1="143.1" x2="114.17" y2="143.64"/>
  <line class="cls-3" x1="115.93" y1="145.91" x2="116.43" y2="146.45"/>
  <line class="cls-3" x1="116.43" y1="146.45" x2="117.3" y2="147.23"/>
  <line class="cls-3" x1="117.3" y1="147.23" x2="118.18" y2="147.96"/>
  <line class="cls-3" x1="118.18" y1="147.96" x2="119.06" y2="148.77"/>
  <line class="cls-3" x1="119.06" y1="148.77" x2="119.94" y2="149.4"/>
  <line class="cls-3" x1="119.94" y1="149.4" x2="120.3" y2="149.66"/>
  <line class="cls-3" x1="122.58" y1="151.41" x2="123.44" y2="151.99"/>
  <line class="cls-3" x1="123.44" y1="151.99" x2="124.32" y2="152.58"/>
  <line class="cls-3" x1="124.32" y1="152.58" x2="125.19" y2="153.26"/>
  <line class="cls-3" x1="125.19" y1="153.26" x2="126.08" y2="154.07"/>
  <line class="cls-3" x1="126.08" y1="154.07" x2="126.96" y2="154.9"/>
  <line class="cls-3" x1="126.96" y1="154.9" x2="127.08" y2="155"/>
  <line class="cls-3" x1="129.42" y1="156.65" x2="129.58" y2="156.74"/>
  <line class="cls-3" x1="129.58" y1="156.74" x2="130.46" y2="157.28"/>
  <line class="cls-3" x1="130.46" y1="157.28" x2="131.34" y2="157.75"/>
  <line class="cls-3" x1="131.34" y1="157.75" x2="132.21" y2="158.14"/>
  <line class="cls-3" x1="132.21" y1="158.14" x2="133.1" y2="158.62"/>
  <line class="cls-3" x1="133.1" y1="158.62" x2="133.97" y2="159.09"/>
  <line class="cls-3" x1="133.97" y1="159.09" x2="134.48" y2="159.39"/>
  <line class="cls-3" x1="137.03" y1="160.72" x2="137.48" y2="161.01"/>
  <line class="cls-3" x1="137.48" y1="161.01" x2="138.35" y2="161.69"/>
  <line class="cls-3" x1="138.35" y1="161.69" x2="139.23" y2="162.36"/>
  <line class="cls-3" x1="139.23" y1="162.36" x2="140.12" y2="162.94"/>
  <line class="cls-3" x1="140.12" y1="162.94" x2="140.99" y2="163.5"/>
  <line class="cls-3" x1="140.99" y1="163.5" x2="141.78" y2="163.97"/>
  <line class="cls-3" x1="144.27" y1="165.42" x2="144.5" y2="165.53"/>
  <line class="cls-3" x1="144.5" y1="165.53" x2="145.37" y2="165.96"/>
  <line class="cls-3" x1="145.37" y1="165.96" x2="146.25" y2="166.35"/>
  <line class="cls-3" x1="146.25" y1="166.35" x2="147.13" y2="166.75"/>
  <line class="cls-3" x1="147.13" y1="166.75" x2="148.01" y2="167.04"/>
  <line class="cls-3" x1="148.01" y1="167.04" x2="148.89" y2="167.26"/>
  <line class="cls-3" x1="148.89" y1="167.26" x2="149.63" y2="167.48"/>
  <line class="cls-3" x1="152.44" y1="168.07" x2="153.27" y2="168.16"/>
  <line class="cls-3" x1="153.27" y1="168.16" x2="154.15" y2="168.27"/>
  <line class="cls-3" x1="154.15" y1="168.27" x2="155.03" y2="168.46"/>
  <line class="cls-3" x1="155.03" y1="168.46" x2="155.9" y2="168.67"/>
  <line class="cls-3" x1="155.9" y1="168.67" x2="156.78" y2="168.94"/>
  <line class="cls-3" x1="156.78" y1="168.94" x2="157.66" y2="169.15"/>
  <line class="cls-3" x1="157.66" y1="169.15" x2="158.08" y2="169.22"/>
  <line class="cls-3" x1="160.89" y1="169.82" x2="161.17" y2="169.87"/>
  <line class="cls-3" x1="161.17" y1="169.87" x2="162.05" y2="170.04"/>
  <line class="cls-3" x1="162.05" y1="170.04" x2="162.92" y2="170.21"/>
  <line class="cls-3" x1="162.92" y1="170.21" x2="163.8" y2="170.43"/>
  <line class="cls-3" x1="163.8" y1="170.43" x2="164.67" y2="170.65"/>
  <line class="cls-3" x1="164.67" y1="170.65" x2="165.55" y2="170.83"/>
  <line class="cls-3" x1="165.55" y1="170.83" x2="166.43" y2="170.91"/>
  <line class="cls-3" x1="166.43" y1="170.91" x2="166.55" y2="170.94"/>
  <line class="cls-3" x1="169.37" y1="171.43" x2="169.94" y2="171.53"/>
  <line class="cls-3" x1="169.94" y1="171.53" x2="170.82" y2="171.68"/>
  <line class="cls-3" x1="170.82" y1="171.68" x2="171.69" y2="171.83"/>
  <line class="cls-3" x1="171.69" y1="171.83" x2="172.57" y2="171.98"/>
  <line class="cls-3" x1="172.57" y1="171.98" x2="173.44" y2="172.18"/>
  <line class="cls-3" x1="173.44" y1="172.18" x2="174.33" y2="172.36"/>
  <line class="cls-3" x1="174.33" y1="172.36" x2="175.03" y2="172.5"/>
  <line class="cls-3" x1="177.86" y1="173.02" x2="178.71" y2="173.16"/>
  <line class="cls-3" x1="178.71" y1="173.16" x2="179.59" y2="173.34"/>
  <line class="cls-3" x1="179.59" y1="173.34" x2="180.46" y2="173.41"/>
  <line class="cls-3" x1="180.46" y1="173.41" x2="181.35" y2="173.49"/>
  <line class="cls-3" x1="181.35" y1="173.49" x2="182.22" y2="173.57"/>
  <line class="cls-3" x1="182.22" y1="173.57" x2="183.1" y2="173.61"/>
  <line class="cls-3" x1="183.1" y1="173.61" x2="183.58" y2="173.63"/>
  <line class="cls-3" x1="186.46" y1="173.73" x2="186.6" y2="173.74"/>
  <line class="cls-3" x1="186.6" y1="173.74" x2="187.48" y2="173.82"/>
  <line class="cls-3" x1="187.48" y1="173.82" x2="188.37" y2="173.87"/>
  <line class="cls-3" x1="188.37" y1="173.87" x2="189.24" y2="173.91"/>
  <line class="cls-3" x1="189.24" y1="173.91" x2="190.12" y2="173.95"/>
  <line class="cls-3" x1="190.12" y1="173.95" x2="190.99" y2="174.08"/>
  <line class="cls-3" x1="190.99" y1="174.08" x2="191.87" y2="174.2"/>
  <line class="cls-3" x1="191.87" y1="174.2" x2="192.2" y2="174.24"/>
  <line class="cls-3" x1="195.06" y1="174.5" x2="195.38" y2="174.51"/>
  <line class="cls-3" x1="195.38" y1="174.51" x2="196.26" y2="174.48"/>
  <line class="cls-3" x1="196.26" y1="174.48" x2="197.14" y2="174.44"/>
  <line class="cls-3" x1="197.14" y1="174.44" x2="198.01" y2="174.38"/>
  <line class="cls-3" x1="198.01" y1="174.38" x2="198.89" y2="174.39"/>
  <line class="cls-3" x1="198.89" y1="174.39" x2="199.76" y2="174.43"/>
  <line class="cls-3" x1="199.76" y1="174.43" x2="200.64" y2="174.46"/>
  <line class="cls-3" x1="200.64" y1="174.46" x2="200.83" y2="174.48"/>
  <line class="cls-3" x1="203.67" y1="174.89" x2="204.15" y2="174.96"/>
  <line class="cls-3" x1="204.15" y1="174.96" x2="205.03" y2="175.13"/>
  <line class="cls-3" x1="205.03" y1="175.13" x2="205.91" y2="175.26"/>
  <line class="cls-3" x1="205.91" y1="175.26" x2="206.78" y2="175.34"/>
  <line class="cls-3" x1="206.78" y1="175.34" x2="207.66" y2="175.38"/>
  <line class="cls-3" x1="207.66" y1="175.38" x2="208.53" y2="175.36"/>
  <line class="cls-3" x1="208.53" y1="175.36" x2="209.41" y2="175.32"/>
  <line class="cls-3" x1="212.28" y1="175.18" x2="212.92" y2="175.17"/>
  <line class="cls-3" x1="212.92" y1="175.17" x2="213.8" y2="175.22"/>
  <line class="cls-3" x1="213.8" y1="175.22" x2="214.67" y2="175.3"/>
  <line class="cls-3" x1="214.67" y1="175.3" x2="215.55" y2="175.38"/>
  <line class="cls-3" x1="215.55" y1="175.38" x2="216.44" y2="175.47"/>
  <line class="cls-3" x1="216.44" y1="175.47" x2="217.31" y2="175.6"/>
  <line class="cls-3" x1="217.31" y1="175.6" x2="218.02" y2="175.68"/>
  <line class="cls-3" x1="220.89" y1="175.8" x2="221.69" y2="175.81"/>
  <line class="cls-3" x1="221.69" y1="175.81" x2="222.57" y2="175.81"/>
  <line class="cls-3" x1="222.57" y1="175.81" x2="223.45" y2="175.8"/>
  <line class="cls-3" x1="223.45" y1="175.8" x2="224.33" y2="175.79"/>
  <line class="cls-3" x1="224.33" y1="175.79" x2="225.21" y2="175.78"/>
  <line class="cls-3" x1="225.21" y1="175.78" x2="226.08" y2="175.79"/>
  <line class="cls-3" x1="226.08" y1="175.79" x2="226.66" y2="175.83"/>
  <line class="cls-3" x1="229.53" y1="175.99" x2="229.59" y2="176"/>
  <line class="cls-3" x1="229.59" y1="176" x2="230.47" y2="176.04"/>
  <line class="cls-3" x1="230.47" y1="176.04" x2="231.35" y2="176.08"/>
  <line class="cls-3" x1="231.35" y1="176.08" x2="232.22" y2="176.14"/>
  <line class="cls-3" x1="232.22" y1="176.14" x2="233.1" y2="176.17"/>
  <line class="cls-3" x1="233.1" y1="176.17" x2="233.98" y2="176.2"/>
  <line class="cls-3" x1="233.98" y1="176.2" x2="234.85" y2="176.24"/>
  <line class="cls-3" x1="234.85" y1="176.24" x2="235.3" y2="176.26"/>
  <line class="cls-3" x1="238.17" y1="176.34" x2="238.37" y2="176.35"/>
  <line class="cls-3" x1="238.37" y1="176.35" x2="239.24" y2="176.41"/>
  <line class="cls-3" x1="239.24" y1="176.41" x2="240.12" y2="176.48"/>
  <line class="cls-3" x1="240.12" y1="176.48" x2="240.99" y2="176.55"/>
  <line class="cls-3" x1="240.99" y1="176.55" x2="241.87" y2="176.61"/>
  <line class="cls-3" x1="241.87" y1="176.61" x2="242.75" y2="176.64"/>
  <line class="cls-3" x1="242.75" y1="176.64" x2="243.62" y2="176.67"/>
  <line class="cls-3" x1="243.62" y1="176.67" x2="243.93" y2="176.68"/>
  <line class="cls-3" x1="246.81" y1="176.66" x2="247.14" y2="176.64"/>
  <line class="cls-3" x1="247.14" y1="176.64" x2="248.01" y2="176.6"/>
  <line class="cls-3" x1="248.01" y1="176.6" x2="248.89" y2="176.56"/>
  <line class="cls-3" x1="248.89" y1="176.56" x2="249.76" y2="176.53"/>
  <line class="cls-3" x1="249.76" y1="176.53" x2="250.64" y2="176.54"/>
  <line class="cls-3" x1="250.64" y1="176.54" x2="251.53" y2="176.56"/>
  <line class="cls-3" x1="251.53" y1="176.56" x2="252.4" y2="176.6"/>
  <line class="cls-3" x1="252.4" y1="176.6" x2="252.58" y2="176.61"/>
  <line class="cls-3" x1="255.46" y1="176.72" x2="255.91" y2="176.73"/>
  <line class="cls-3" x1="255.91" y1="176.73" x2="256.78" y2="176.74"/>
  <line class="cls-3" x1="256.78" y1="176.74" x2="257.66" y2="176.76"/>
  <line class="cls-3" x1="257.66" y1="176.76" x2="258.54" y2="176.76"/>
  <line class="cls-3" x1="258.54" y1="176.76" x2="259.42" y2="176.72"/>
  <line class="cls-3" x1="259.42" y1="176.72" x2="260.3" y2="176.7"/>
  <line class="cls-3" x1="260.3" y1="176.7" x2="261.17" y2="176.69"/>
  <line class="cls-3" x1="261.17" y1="176.69" x2="261.22" y2="176.69"/>
  <line class="cls-3" x1="264.1" y1="176.71" x2="264.68" y2="176.73"/>
  <line class="cls-3" x1="264.68" y1="176.73" x2="265.56" y2="176.76"/>
  <line class="cls-3" x1="265.56" y1="176.76" x2="266.44" y2="176.77"/>
  <line class="cls-3" x1="266.44" y1="176.77" x2="267.31" y2="176.76"/>
  <line class="cls-3" x1="267.31" y1="176.76" x2="268.19" y2="176.74"/>
  <line class="cls-3" x1="268.19" y1="176.74" x2="269.07" y2="176.73"/>
  <line class="cls-3" x1="269.07" y1="176.73" x2="269.86" y2="176.71"/>
  <line class="cls-3" x1="272.74" y1="176.69" x2="273.46" y2="176.71"/>
  <line class="cls-3" x1="273.46" y1="176.71" x2="274.33" y2="176.74"/>
  <line class="cls-3" x1="274.33" y1="176.74" x2="275.21" y2="176.76"/>
  <line class="cls-3" x1="275.21" y1="176.76" x2="276.08" y2="176.77"/>
  <line class="cls-3" x1="276.08" y1="176.77" x2="276.96" y2="176.79"/>
  <line class="cls-3" x1="276.96" y1="176.79" x2="277.84" y2="176.81"/>
  <line class="cls-3" x1="277.84" y1="176.81" x2="278.5" y2="176.82"/>
  <line class="cls-3" x1="281.38" y1="176.88" x2="282.23" y2="176.91"/>
  <line class="cls-3" x1="282.23" y1="176.91" x2="283.1" y2="176.93"/>
  <line class="cls-3" x1="283.1" y1="176.93" x2="283.98" y2="176.96"/>
  <line class="cls-3" x1="283.98" y1="176.96" x2="284.85" y2="176.99"/>
  <line class="cls-3" x1="284.85" y1="176.99" x2="285.73" y2="177.02"/>
  <line class="cls-3" x1="285.73" y1="177.02" x2="286.62" y2="177.07"/>
  <line class="cls-3" x1="286.62" y1="177.07" x2="287.14" y2="177.1"/>
  <line class="cls-3" x1="290.02" y1="177.17" x2="290.12" y2="177.17"/>
  <line class="cls-3" x1="290.12" y1="177.17" x2="291" y2="177.16"/>
  <line class="cls-3" x1="291" y1="177.16" x2="291.87" y2="177.15"/>
  <line class="cls-3" x1="291.87" y1="177.15" x2="292.75" y2="177.16"/>
  <line class="cls-3" x1="292.75" y1="177.16" x2="293.63" y2="177.19"/>
  <line class="cls-3" x1="293.63" y1="177.19" x2="294.51" y2="177.21"/>
  <line class="cls-3" x1="294.51" y1="177.21" x2="295.38" y2="177.22"/>
  <line class="cls-3" x1="295.38" y1="177.22" x2="295.78" y2="177.21"/>
  <line class="cls-2" x1="113.54" y1="25.16" x2="113.54" y2="25.45"/>
  <line class="cls-2" x1="113.54" y1="27.46" x2="113.54" y2="27.75"/>
  <line class="cls-2" x1="113.54" y1="29.77" x2="113.54" y2="30.05"/>
  <line class="cls-2" x1="113.54" y1="32.07" x2="113.54" y2="32.36"/>
  <line class="cls-2" x1="113.54" y1="34.38" x2="113.54" y2="34.66"/>
  <line class="cls-2" x1="113.54" y1="36.68" x2="113.54" y2="36.97"/>
  <line class="cls-2" x1="113.54" y1="38.99" x2="113.54" y2="39.27"/>
  <line class="cls-2" x1="113.54" y1="41.29" x2="113.54" y2="41.58"/>
  <line class="cls-2" x1="113.54" y1="43.6" x2="113.54" y2="43.88"/>
  <line class="cls-2" x1="113.54" y1="45.9" x2="113.54" y2="46.19"/>
  <line class="cls-2" x1="113.54" y1="48.2" x2="113.54" y2="48.49"/>
  <line class="cls-2" x1="113.54" y1="50.51" x2="113.54" y2="50.79"/>
  <line class="cls-2" x1="113.54" y1="52.81" x2="113.54" y2="53.1"/>
  <line class="cls-2" x1="113.54" y1="55.12" x2="113.54" y2="55.4"/>
  <line class="cls-2" x1="113.54" y1="57.41" x2="113.54" y2="57.71"/>
  <line class="cls-2" x1="113.54" y1="59.72" x2="113.54" y2="60.01"/>
  <line class="cls-2" x1="113.54" y1="62.02" x2="113.54" y2="62.32"/>
  <line class="cls-2" x1="113.54" y1="64.33" x2="113.54" y2="64.62"/>
  <line class="cls-2" x1="113.54" y1="66.63" x2="113.54" y2="66.93"/>
  <line class="cls-2" x1="113.54" y1="68.93" x2="113.54" y2="69.23"/>
  <line class="cls-2" x1="113.54" y1="71.24" x2="113.54" y2="71.53"/>
  <line class="cls-2" x1="113.54" y1="73.54" x2="113.54" y2="73.84"/>
  <line class="cls-2" x1="113.54" y1="75.85" x2="113.54" y2="76.14"/>
  <line class="cls-2" x1="113.54" y1="78.15" x2="113.54" y2="78.44"/>
  <line class="cls-2" x1="113.54" y1="80.46" x2="113.54" y2="80.74"/>
  <line class="cls-2" x1="113.54" y1="82.76" x2="113.54" y2="83.05"/>
  <line class="cls-2" x1="113.54" y1="85.07" x2="113.54" y2="85.35"/>
  <line class="cls-2" x1="113.54" y1="87.37" x2="113.54" y2="87.66"/>
  <line class="cls-2" x1="113.54" y1="89.68" x2="113.54" y2="89.96"/>
  <line class="cls-2" x1="113.54" y1="91.98" x2="113.54" y2="92.27"/>
  <line class="cls-2" x1="113.54" y1="94.28" x2="113.54" y2="94.57"/>
  <line class="cls-2" x1="113.54" y1="96.59" x2="113.54" y2="96.87"/>
  <line class="cls-2" x1="113.54" y1="98.89" x2="113.54" y2="99.18"/>
  <line class="cls-2" x1="113.54" y1="101.2" x2="113.54" y2="101.48"/>
  <line class="cls-2" x1="113.54" y1="103.5" x2="113.54" y2="103.79"/>
  <line class="cls-2" x1="113.54" y1="105.81" x2="113.54" y2="106.09"/>
  <line class="cls-2" x1="113.54" y1="108.11" x2="113.54" y2="108.4"/>
  <line class="cls-2" x1="113.54" y1="110.42" x2="113.54" y2="110.7"/>
  <line class="cls-2" x1="113.54" y1="112.71" x2="113.54" y2="113.01"/>
  <line class="cls-2" x1="113.54" y1="115.01" x2="113.54" y2="115.31"/>
  <line class="cls-2" x1="113.54" y1="117.32" x2="113.54" y2="117.61"/>
  <line class="cls-2" x1="113.54" y1="119.62" x2="113.54" y2="119.92"/>
  <line class="cls-2" x1="113.54" y1="121.93" x2="113.54" y2="122.22"/>
  <line class="cls-2" x1="113.54" y1="124.23" x2="113.54" y2="124.53"/>
  <line class="cls-2" x1="113.54" y1="126.54" x2="113.54" y2="126.83"/>
  <line class="cls-2" x1="113.54" y1="128.84" x2="113.54" y2="129.14"/>
  <line class="cls-2" x1="113.54" y1="131.15" x2="113.54" y2="131.43"/>
  <line class="cls-2" x1="113.54" y1="133.45" x2="113.54" y2="133.74"/>
  <line class="cls-2" x1="113.54" y1="135.75" x2="113.54" y2="136.04"/>
  <line class="cls-2" x1="113.54" y1="138.06" x2="113.54" y2="138.34"/>
  <line class="cls-2" x1="113.54" y1="140.36" x2="113.54" y2="140.65"/>
  <line class="cls-2" x1="113.54" y1="142.67" x2="113.54" y2="142.95"/>
  <line class="cls-2" x1="113.54" y1="144.97" x2="113.54" y2="145.26"/>
  <line class="cls-2" x1="113.54" y1="147.28" x2="113.54" y2="147.56"/>
  <line class="cls-2" x1="113.54" y1="149.58" x2="113.54" y2="149.87"/>
  <line class="cls-2" x1="113.54" y1="151.89" x2="113.54" y2="152.17"/>
  <line class="cls-2" x1="113.54" y1="154.19" x2="113.54" y2="154.48"/>
  <line class="cls-2" x1="113.54" y1="156.49" x2="113.54" y2="156.78"/>
  <line class="cls-2" x1="113.54" y1="158.8" x2="113.54" y2="159.08"/>
  <line class="cls-2" x1="113.54" y1="161.1" x2="113.54" y2="161.39"/>
  <line class="cls-2" x1="113.54" y1="163.41" x2="113.54" y2="163.69"/>
  <line class="cls-2" x1="113.54" y1="165.7" x2="113.54" y2="166"/>
  <line class="cls-2" x1="113.54" y1="168.01" x2="113.54" y2="168.3"/>
  <line class="cls-2" x1="113.54" y1="170.31" x2="113.54" y2="170.61"/>
  <line class="cls-2" x1="113.54" y1="172.62" x2="113.54" y2="172.91"/>
  <line class="cls-2" x1="113.54" y1="174.92" x2="113.54" y2="175.22"/>
  <line class="cls-2" x1="113.54" y1="177.22" x2="113.54" y2="177.52"/>
  <line class="cls-2" x1="218.45" y1="25.16" x2="218.45" y2="25.45"/>
  <line class="cls-2" x1="218.45" y1="27.46" x2="218.45" y2="27.75"/>
  <line class="cls-2" x1="218.45" y1="29.77" x2="218.45" y2="30.05"/>
  <line class="cls-2" x1="218.45" y1="32.07" x2="218.45" y2="32.36"/>
  <line class="cls-2" x1="218.45" y1="34.38" x2="218.45" y2="34.66"/>
  <line class="cls-2" x1="218.45" y1="36.68" x2="218.45" y2="36.97"/>
  <line class="cls-2" x1="218.45" y1="38.99" x2="218.45" y2="39.27"/>
  <line class="cls-2" x1="218.45" y1="41.29" x2="218.45" y2="41.58"/>
  <line class="cls-2" x1="218.45" y1="43.6" x2="218.45" y2="43.88"/>
  <line class="cls-2" x1="218.45" y1="45.9" x2="218.45" y2="46.19"/>
  <line class="cls-2" x1="218.45" y1="48.2" x2="218.45" y2="48.49"/>
  <line class="cls-2" x1="218.45" y1="50.51" x2="218.45" y2="50.79"/>
  <line class="cls-2" x1="218.45" y1="52.81" x2="218.45" y2="53.1"/>
  <line class="cls-2" x1="218.45" y1="55.12" x2="218.45" y2="55.4"/>
  <line class="cls-2" x1="218.45" y1="57.41" x2="218.45" y2="57.71"/>
  <line class="cls-2" x1="218.45" y1="59.72" x2="218.45" y2="60.01"/>
  <line class="cls-2" x1="218.45" y1="62.02" x2="218.45" y2="62.32"/>
  <line class="cls-2" x1="218.45" y1="64.33" x2="218.45" y2="64.62"/>
  <line class="cls-2" x1="218.45" y1="66.63" x2="218.45" y2="66.93"/>
  <line class="cls-2" x1="218.45" y1="68.93" x2="218.45" y2="69.23"/>
  <line class="cls-2" x1="218.45" y1="71.24" x2="218.45" y2="71.53"/>
  <line class="cls-2" x1="218.45" y1="73.54" x2="218.45" y2="73.84"/>
  <line class="cls-2" x1="218.45" y1="75.85" x2="218.45" y2="76.14"/>
  <line class="cls-2" x1="218.45" y1="78.15" x2="218.45" y2="78.44"/>
  <line class="cls-2" x1="218.45" y1="80.46" x2="218.45" y2="80.74"/>
  <line class="cls-2" x1="218.45" y1="82.76" x2="218.45" y2="83.05"/>
  <line class="cls-2" x1="218.45" y1="85.07" x2="218.45" y2="85.35"/>
  <line class="cls-2" x1="218.45" y1="87.37" x2="218.45" y2="87.66"/>
  <line class="cls-2" x1="218.45" y1="89.68" x2="218.45" y2="89.96"/>
  <line class="cls-2" x1="218.45" y1="91.98" x2="218.45" y2="92.27"/>
  <line class="cls-2" x1="218.45" y1="94.28" x2="218.45" y2="94.57"/>
  <line class="cls-2" x1="218.45" y1="96.59" x2="218.45" y2="96.87"/>
  <line class="cls-2" x1="218.45" y1="98.89" x2="218.45" y2="99.18"/>
  <line class="cls-2" x1="218.45" y1="101.2" x2="218.45" y2="101.48"/>
  <line class="cls-2" x1="218.45" y1="103.5" x2="218.45" y2="103.79"/>
  <line class="cls-2" x1="218.45" y1="105.81" x2="218.45" y2="106.09"/>
  <line class="cls-2" x1="218.45" y1="108.11" x2="218.45" y2="108.4"/>
  <line class="cls-2" x1="218.45" y1="110.42" x2="218.45" y2="110.7"/>
  <line class="cls-2" x1="218.45" y1="112.71" x2="218.45" y2="113.01"/>
  <line class="cls-2" x1="218.45" y1="115.01" x2="218.45" y2="115.31"/>
  <line class="cls-2" x1="218.45" y1="117.32" x2="218.45" y2="117.61"/>
  <line class="cls-2" x1="218.45" y1="119.62" x2="218.45" y2="119.92"/>
  <line class="cls-2" x1="218.45" y1="121.93" x2="218.45" y2="122.22"/>
  <line class="cls-2" x1="218.45" y1="124.23" x2="218.45" y2="124.53"/>
  <line class="cls-2" x1="218.45" y1="126.54" x2="218.45" y2="126.83"/>
  <line class="cls-2" x1="218.45" y1="128.84" x2="218.45" y2="129.14"/>
  <line class="cls-2" x1="218.45" y1="131.15" x2="218.45" y2="131.43"/>
  <line class="cls-2" x1="218.45" y1="133.45" x2="218.45" y2="133.74"/>
  <line class="cls-2" x1="218.45" y1="135.75" x2="218.45" y2="136.04"/>
  <line class="cls-2" x1="218.45" y1="138.06" x2="218.45" y2="138.34"/>
  <line class="cls-2" x1="218.45" y1="140.36" x2="218.45" y2="140.65"/>
  <line class="cls-2" x1="218.45" y1="142.67" x2="218.45" y2="142.95"/>
  <line class="cls-2" x1="218.45" y1="144.97" x2="218.45" y2="145.26"/>
  <line class="cls-2" x1="218.45" y1="147.28" x2="218.45" y2="147.56"/>
  <line class="cls-2" x1="218.45" y1="149.58" x2="218.45" y2="149.87"/>
  <line class="cls-2" x1="218.45" y1="151.89" x2="218.45" y2="152.17"/>
  <line class="cls-2" x1="218.45" y1="154.19" x2="218.45" y2="154.48"/>
  <line class="cls-2" x1="218.45" y1="156.49" x2="218.45" y2="156.78"/>
  <line class="cls-2" x1="218.45" y1="158.8" x2="218.45" y2="159.08"/>
  <line class="cls-2" x1="218.45" y1="161.1" x2="218.45" y2="161.39"/>
  <line class="cls-2" x1="218.45" y1="163.41" x2="218.45" y2="163.69"/>
  <line class="cls-2" x1="218.45" y1="165.7" x2="218.45" y2="166"/>
  <line class="cls-2" x1="218.45" y1="168.01" x2="218.45" y2="168.3"/>
  <line class="cls-2" x1="218.45" y1="170.31" x2="218.45" y2="170.61"/>
  <line class="cls-2" x1="218.45" y1="172.62" x2="218.45" y2="172.91"/>
  <line class="cls-2" x1="218.45" y1="174.92" x2="218.45" y2="175.22"/>
  <line class="cls-2" x1="218.45" y1="177.22" x2="218.45" y2="177.52"/>
  <text class="cls-7" transform="translate(90.74 8.51)"><tspan x="0" y="0">Long-term</tspan></text>
  <text class="cls-7" transform="translate(194.83 8.51)"><tspan x="0" y="0">Short-term</tspan></text>
  <text class="cls-7" transform="translate(94.07 18.59)"><tspan x="0" y="0">standard</tspan></text>
  <text class="cls-7" transform="translate(198.99 18.59)"><tspan x="0" y="0">standard</tspan></text>
  <line class="cls-4" x1="28.51" y1="177.71" x2="28.51" y2="48.18"/>
  <line class="cls-4" x1="28.51" y1="177.71" x2="24.51" y2="177.71"/>
  <text class="cls-8" transform="translate(19.51 180.49) rotate(-90)"><tspan x="0" y="0">0</tspan></text>
  <line class="cls-4" x1="28.51" y1="134.53" x2="24.51" y2="134.53"/>
  <text class="cls-8" transform="translate(19.51 141.48) rotate(-90)"><tspan x="0" y="0">.03</tspan></text>
  <line class="cls-4" x1="28.51" y1="91.35" x2="24.51" y2="91.35"/>
  <text class="cls-8" transform="translate(19.51 98.3) rotate(-90)"><tspan x="0" y="0">.06</tspan></text>
  <line class="cls-4" x1="28.51" y1="48.18" x2="24.51" y2="48.18"/>
  <text class="cls-8" transform="translate(19.51 55.13) rotate(-90)"><tspan x="0" y="0">.09</tspan></text>
  <text class="cls-7" transform="translate(8.51 108.03) rotate(-90)"><tspan x="0" y="0">Density</tspan></text>
  <line class="cls-4" x1="34.85" y1="184.04" x2="297.14" y2="184.04"/>
  <line class="cls-4" x1="34.85" y1="184.04" x2="34.85" y2="188.04"/>
  <text class="cls-8" transform="translate(32.06 197.06)"><tspan x="0" y="0">0</tspan></text>
  <line class="cls-4" x1="87.31" y1="184.04" x2="87.31" y2="188.04"/>
  <text class="cls-8" transform="translate(81.74 197.06)"><tspan x="0" y="0">10</tspan></text>
  <line class="cls-4" x1="139.77" y1="184.04" x2="139.77" y2="188.04"/>
  <text class="cls-8" transform="translate(134.21 197.06)"><tspan x="0" y="0">20</tspan></text>
  <line class="cls-4" x1="192.22" y1="184.04" x2="192.22" y2="188.04"/>
  <text class="cls-8" transform="translate(186.66 197.06)"><tspan x="0" y="0">30</tspan></text>
  <line class="cls-4" x1="244.69" y1="184.04" x2="244.69" y2="188.04"/>
  <text class="cls-8" transform="translate(239.12 197.06)"><tspan x="0" y="0">40</tspan></text>
  <line class="cls-4" x1="297.14" y1="184.04" x2="297.14" y2="188.04"/>
  <text class="cls-8" transform="translate(291.58 197.06)"><tspan x="0" y="0">50</tspan></text>
  <text class="cls-7" transform="translate(135.82 208.06)"><tspan x="0" y="0">PM</tspan></text>
  <text class="cls-9" transform="translate(150.83 209.49)"><tspan x="0" y="0">2.5</tspan></text>
  <line class="cls-3" x1="39.95" y1="218.84" x2="45.71" y2="218.84"/>
  <line class="cls-3" x1="48.59" y1="218.84" x2="54.36" y2="218.84"/>
  <line class="cls-3" x1="57.23" y1="218.84" x2="63" y2="218.84"/>
  <line class="cls-3" x1="65.88" y1="218.84" x2="71.65" y2="218.84"/>
  <line class="cls-3" x1="74.52" y1="218.84" x2="77.4" y2="218.84"/>
  <line class="cls-5" x1="39.95" y1="232.85" x2="45.71" y2="232.85"/>
  <line class="cls-5" x1="48.59" y1="232.85" x2="54.36" y2="232.85"/>
  <line class="cls-5" x1="57.23" y1="232.85" x2="63" y2="232.85"/>
  <line class="cls-5" x1="65.88" y1="232.85" x2="71.65" y2="232.85"/>
  <line class="cls-5" x1="74.52" y1="232.85" x2="77.4" y2="232.85"/>
  <line class="cls-6" x1="39.95" y1="246.86" x2="77.4" y2="246.86"/>
  <text class="cls-7" transform="translate(83.41 222.34)"><tspan x="0" y="0">Observed value, when not missing monitoring</tspan></text>
  <text class="cls-7" transform="translate(83.41 236.35)"><tspan x="0" y="0">Predicted value, when not missing monitoring</tspan></text>
  <text class="cls-7" transform="translate(83.41 250.36)"><tspan x="0" y="0">Predicted value, when missing monitoring</tspan></text>
</svg>