<?xml version="1.0" encoding="UTF-8"?>
<svg id="Layer_1" data-name="Layer 1" xmlns="http://www.w3.org/2000/svg" viewBox="0 0 300.3 255.56">
  <defs>
    <style>
      .cls-1 {
        stroke-linejoin: round;
      }

      .cls-1, .cls-2, .cls-3, .cls-4, .cls-5, .cls-6 {
        fill: none;
      }

      .cls-1, .cls-3, .cls-5, .cls-6 {
        stroke-width: .86px;
      }

      .cls-1, .cls-6 {
        stroke: orange;
      }

      .cls-2 {
        stroke-width: 1.44px;
      }

      .cls-2, .cls-3, .cls-4, .cls-5, .cls-6 {
        stroke-miterlimit: 10;
      }

      .cls-2, .cls-4 {
        stroke: #000;
      }

      .cls-7 {
        font-size: 10.01px;
      }

      .cls-7, .cls-8, .cls-9 {
        font-family: Sarabun-Light, Sarabun;
        font-weight: 300;
      }

      .cls-8 {
        font-size: 8px;
      }

      .cls-3 {
        stroke: #b0b0b0;
      }

      .cls-4 {
        stroke-width: .58px;
      }

      .cls-9 {
        font-size: 5.83px;
      }

      .cls-5 {
        stroke: #6e8e84;
      }
    </style>
  </defs>
  <polyline class="cls-1" points="34.85 174.64 35.72 173.34 36.6 171.77 37.48 170.04 38.35 168.13 39.23 166.06 40.1 163.8 40.98 161.34 41.87 158.68 42.74 155.71 43.62 152.28 44.49 148.53 45.37 144.48 46.25 139.94 47.12 134.9 48 129.48 48.88 123.93 49.76 118.31 50.64 112.71 51.51 107.34 52.39 102.11 53.26 96.9 54.14 91.93 55.02 87.35 55.9 83.05 56.78 78.81 57.65 74.8 58.53 71.05 59.41 67.71 60.28 64.6 61.16 61.99 62.03 59.8 62.92 57.94 63.8 56.47 64.67 55.17 65.55 54.08 66.42 53.2 67.3 52.27 68.18 51.62 69.05 51.24 69.94 51.04 70.81 50.85 71.69 51.02 72.57 51.54 73.44 52.47 74.32 53.51 75.19 54.59 76.07 55.81 76.96 57.13 77.83 58.41 78.71 59.77 79.58 61.01 80.46 62.36 81.34 63.83 82.21 65.81 83.09 68.13 83.97 70.43 84.85 72.86 85.73 75.49 86.6 78.11 87.48 80.76 88.35 83.35 89.23 85.56 90.11 87.32 90.99 89.06 91.87 91.01 92.74 93.15 93.62 95.07 94.5 96.86 95.37 98.67 96.25 100.51 97.12 102.53 98.01 104.45 98.89 106.35 99.76 107.95 100.64 109.38 101.51 111 102.39 112.76 103.27 114.6 104.14 116.29 105.03 117.91 105.9 119.48 106.78 121.16 107.66 122.74 108.53 124.31 109.41 125.79 110.28 127.13 111.16 128.36 112.05 129.77 112.92 131.33 113.8 132.98 114.67 134.54 115.55 136.14 116.43 137.73 117.3 139.29 118.18 140.75 119.06 142.31 119.94 143.69 120.81 144.95 121.69 145.91 122.57 146.93 123.44 147.86 124.32 148.74 125.19 149.54 126.08 150.32 126.96 151.04 127.83 151.64 128.71 152.19 129.58 152.86 130.46 153.59 131.34 154.31 132.21 155.01 133.1 155.77 133.97 156.51 134.85 157.22 135.73 157.92 136.6 158.65 137.48 159.4 138.35 160.09 139.23 160.61 140.12 161.19 140.99 161.73 141.87 162.28 142.74 162.81 143.62 163.24 144.5 163.7 145.37 164.14 146.25 164.58 147.13 165.05 148.01 165.6 148.89 166.09 149.76 166.49 150.64 166.86 151.51 167.2 152.39 167.5 153.27 167.71 154.15 167.87 155.03 168 155.9 168.15 156.78 168.33 157.66 168.56 158.53 168.87 159.41 169.12 160.28 169.4 161.17 169.72 162.05 170.04 162.92 170.35 163.8 170.68 164.67 170.95 165.55 171.2 166.43 171.4 167.31 171.6 168.19 171.79 169.06 171.96 169.94 172.06 170.82 172.15 171.69 172.29 172.57 172.46 173.44 172.66 174.33 172.86 175.21 173.02 176.08 173.16 176.96 173.29 177.83 173.42 178.71 173.59 179.59 173.73 180.46 173.8 181.35 173.86 182.22 173.93 183.1 174.06 183.98 174.21 184.85 174.36 185.73 174.5 186.6 174.65 187.48 174.77 188.37 174.9 189.24 175.05 190.12 175.16 190.99 175.21 191.87 175.24 192.75 175.26 193.62 175.31 194.5 175.37 195.38 175.46 196.26 175.57 197.14 175.69 198.01 175.78 198.89 175.88 199.76 175.95 200.64 176 201.52 176.04 202.4 176.05 203.28 176.06 204.15 176.08 205.03 176.08 205.91 176.09 206.78 176.11 207.66 176.12 208.53 176.14 209.42 176.15 210.29 176.16 211.17 176.17 212.05 176.19 212.92 176.21 213.8 176.25 214.67 176.28 215.55 176.32 216.44 176.37 217.31 176.41 218.19 176.46 219.06 176.52 219.94 176.57 220.82 176.63 221.69 176.7 222.57 176.76 223.45 176.82 224.33 176.87 225.21 176.91 226.08 176.95 226.96 176.96 227.83 176.97 228.71 176.98 229.59 176.98 230.47 176.98 231.35 176.97 232.22 176.97 233.1 176.98 233.98 176.98 234.85 176.99 235.73 176.99 236.6 177.01 237.49 177.03 238.37 177.07 239.24 177.13 240.12 177.19 240.99 177.26 241.87 177.31 242.75 177.34 243.62 177.35 244.51 177.35 245.38 177.34 246.26 177.31 247.14 177.27 248.01 177.24 248.89 177.23 249.76 177.23 250.64 177.25 251.53 177.27 252.4 177.29 253.28 177.3 254.15 177.31 255.03 177.32 255.91 177.34 256.78 177.36 257.66 177.37 258.54 177.39 259.42 177.41 260.3 177.42 261.17 177.44 262.05 177.41 262.92 177.4 263.8 177.39 264.68 177.38 265.56 177.38 266.44 177.38 267.31 177.39 268.19 177.39 269.07 177.41 269.94 177.41 270.82 177.44 271.69 177.45 272.58 177.45 273.46 177.46 274.33 177.46 275.21 177.47 276.08 177.48 276.96 177.49 277.84 177.5 278.71 177.51 279.6 177.52 280.47 177.53 281.35 177.54 282.23 177.55 283.1 177.55 283.98 177.54 284.85 177.53 285.73 177.52 286.62 177.5 287.49 177.49 288.37 177.47 289.24 177.47 290.12 177.47 291 177.48 291.87 177.49 292.75 177.5 293.63 177.51 294.51 177.51 295.38 177.52 296.26 177.54 297.14 177.55"/>
  <line class="cls-5" x1="34.85" y1="171.09" x2="35.72" y2="167.92"/>
  <line class="cls-5" x1="35.72" y1="167.92" x2="36.33" y2="165.52"/>
  <line class="cls-5" x1="37.06" y1="162.74" x2="37.48" y2="161.13"/>
  <line class="cls-5" x1="37.48" y1="161.13" x2="38.35" y2="158.16"/>
  <line class="cls-5" x1="38.35" y1="158.16" x2="38.62" y2="157.2"/>
  <line class="cls-5" x1="39.4" y1="154.42" x2="40.1" y2="151.85"/>
  <line class="cls-5" x1="40.1" y1="151.85" x2="40.88" y2="148.85"/>
  <line class="cls-5" x1="41.6" y1="146.07" x2="41.87" y2="145.06"/>
  <line class="cls-5" x1="41.87" y1="145.06" x2="42.74" y2="141.41"/>
  <line class="cls-5" x1="42.74" y1="141.41" x2="42.95" y2="140.47"/>
  <line class="cls-5" x1="43.57" y1="137.65" x2="43.62" y2="137.43"/>
  <line class="cls-5" x1="43.62" y1="137.43" x2="44.49" y2="133.12"/>
  <line class="cls-5" x1="44.49" y1="133.12" x2="44.7" y2="132.01"/>
  <line class="cls-5" x1="45.25" y1="129.19" x2="45.37" y2="128.56"/>
  <line class="cls-5" x1="45.37" y1="128.56" x2="46.25" y2="123.86"/>
  <line class="cls-5" x1="46.25" y1="123.86" x2="46.31" y2="123.51"/>
  <line class="cls-5" x1="46.81" y1="120.69" x2="47.12" y2="118.92"/>
  <line class="cls-5" x1="47.12" y1="118.92" x2="47.79" y2="114.99"/>
  <line class="cls-5" x1="48.28" y1="112.17" x2="48.88" y2="108.68"/>
  <line class="cls-5" x1="48.88" y1="108.68" x2="49.26" y2="106.48"/>
  <line class="cls-5" x1="49.75" y1="103.65" x2="49.76" y2="103.62"/>
  <line class="cls-5" x1="49.76" y1="103.62" x2="50.64" y2="98.38"/>
  <line class="cls-5" x1="50.64" y1="98.38" x2="50.71" y2="97.97"/>
  <line class="cls-5" x1="51.17" y1="95.13" x2="51.51" y2="93.05"/>
  <line class="cls-5" x1="51.51" y1="93.05" x2="52.12" y2="89.45"/>
  <line class="cls-5" x1="52.6" y1="86.61" x2="53.26" y2="82.75"/>
  <line class="cls-5" x1="53.26" y1="82.75" x2="53.6" y2="80.93"/>
  <line class="cls-5" x1="54.1" y1="78.1" x2="54.14" y2="77.84"/>
  <line class="cls-5" x1="54.14" y1="77.84" x2="55.02" y2="73.14"/>
  <line class="cls-5" x1="55.02" y1="73.14" x2="55.17" y2="72.44"/>
  <line class="cls-5" x1="55.74" y1="69.61" x2="55.9" y2="68.84"/>
  <line class="cls-5" x1="55.9" y1="68.84" x2="56.78" y2="65.16"/>
  <line class="cls-5" x1="56.78" y1="65.16" x2="57.09" y2="64.01"/>
  <line class="cls-5" x1="57.87" y1="61.24" x2="58.53" y2="59.2"/>
  <line class="cls-5" x1="58.53" y1="59.2" x2="59.41" y2="56.66"/>
  <line class="cls-5" x1="59.41" y1="56.66" x2="59.75" y2="55.79"/>
  <line class="cls-5" x1="60.95" y1="53.17" x2="61.16" y2="52.74"/>
  <line class="cls-5" x1="61.16" y1="52.74" x2="62.03" y2="51.06"/>
  <line class="cls-5" x1="62.03" y1="51.06" x2="62.92" y2="49.52"/>
  <line class="cls-5" x1="62.92" y1="49.52" x2="63.8" y2="48.29"/>
  <line class="cls-5" x1="63.8" y1="48.29" x2="63.87" y2="48.22"/>
  <line class="cls-5" x1="66.21" y1="46.64" x2="66.42" y2="46.57"/>
  <line class="cls-5" x1="66.42" y1="46.57" x2="67.3" y2="46.71"/>
  <line class="cls-5" x1="67.3" y1="46.71" x2="68.18" y2="47.32"/>
  <line class="cls-5" x1="68.18" y1="47.32" x2="69.05" y2="48.25"/>
  <line class="cls-5" x1="69.05" y1="48.25" x2="69.94" y2="49.47"/>
  <line class="cls-5" x1="69.94" y1="49.47" x2="70.33" y2="50.16"/>
  <line class="cls-5" x1="71.7" y1="52.7" x2="72.57" y2="54.53"/>
  <line class="cls-5" x1="72.57" y1="54.53" x2="73.44" y2="56.38"/>
  <line class="cls-5" x1="73.44" y1="56.38" x2="74.2" y2="57.9"/>
  <line class="cls-5" x1="75.47" y1="60.47" x2="76.07" y2="61.75"/>
  <line class="cls-5" x1="76.07" y1="61.75" x2="76.96" y2="63.58"/>
  <line class="cls-5" x1="76.96" y1="63.58" x2="77.83" y2="65.46"/>
  <line class="cls-5" x1="77.83" y1="65.46" x2="77.93" y2="65.69"/>
  <line class="cls-5" x1="79.04" y1="68.34" x2="79.58" y2="69.63"/>
  <line class="cls-5" x1="79.58" y1="69.63" x2="80.46" y2="71.98"/>
  <line class="cls-5" x1="80.46" y1="71.98" x2="81.09" y2="73.73"/>
  <line class="cls-5" x1="82.03" y1="76.45" x2="82.21" y2="76.98"/>
  <line class="cls-5" x1="82.21" y1="76.98" x2="83.09" y2="79.5"/>
  <line class="cls-5" x1="83.09" y1="79.5" x2="83.97" y2="81.85"/>
  <line class="cls-5" x1="83.97" y1="81.85" x2="83.98" y2="81.88"/>
  <line class="cls-5" x1="85.11" y1="84.52" x2="85.73" y2="85.9"/>
  <line class="cls-5" x1="85.73" y1="85.9" x2="86.6" y2="87.68"/>
  <line class="cls-5" x1="86.6" y1="87.68" x2="87.48" y2="89.62"/>
  <line class="cls-5" x1="87.48" y1="89.62" x2="87.54" y2="89.76"/>
  <line class="cls-5" x1="88.62" y1="92.43" x2="89.23" y2="93.96"/>
  <line class="cls-5" x1="89.23" y1="93.96" x2="90.11" y2="96.08"/>
  <line class="cls-5" x1="90.11" y1="96.08" x2="90.82" y2="97.76"/>
  <line class="cls-5" x1="91.99" y1="100.39" x2="92.74" y2="102"/>
  <line class="cls-5" x1="92.74" y1="102" x2="93.62" y2="103.65"/>
  <line class="cls-5" x1="93.62" y1="103.65" x2="94.5" y2="105.3"/>
  <line class="cls-5" x1="94.5" y1="105.3" x2="94.61" y2="105.52"/>
  <line class="cls-5" x1="95.97" y1="108.05" x2="96.25" y2="108.57"/>
  <line class="cls-5" x1="96.25" y1="108.57" x2="97.12" y2="110.17"/>
  <line class="cls-5" x1="97.12" y1="110.17" x2="98.01" y2="111.65"/>
  <line class="cls-5" x1="98.01" y1="111.65" x2="98.81" y2="113.07"/>
  <line class="cls-5" x1="100.08" y1="115.64" x2="100.64" y2="116.79"/>
  <line class="cls-5" x1="100.64" y1="116.79" x2="101.51" y2="118.57"/>
  <line class="cls-5" x1="101.51" y1="118.57" x2="102.39" y2="120.35"/>
  <line class="cls-5" x1="102.39" y1="120.35" x2="102.62" y2="120.82"/>
  <line class="cls-5" x1="103.94" y1="123.39" x2="104.14" y2="123.78"/>
  <line class="cls-5" x1="104.14" y1="123.78" x2="105.03" y2="125.21"/>
  <line class="cls-5" x1="105.03" y1="125.21" x2="105.9" y2="126.64"/>
  <line class="cls-5" x1="105.9" y1="126.64" x2="106.78" y2="128.12"/>
  <line class="cls-5" x1="106.78" y1="128.12" x2="106.9" y2="128.32"/>
  <line class="cls-5" x1="108.37" y1="130.81" x2="108.53" y2="131.06"/>
  <line class="cls-5" x1="108.53" y1="131.06" x2="109.41" y2="132.49"/>
  <line class="cls-5" x1="109.41" y1="132.49" x2="110.28" y2="133.83"/>
  <line class="cls-5" x1="110.28" y1="133.83" x2="111.16" y2="135.05"/>
  <line class="cls-5" x1="111.16" y1="135.05" x2="111.57" y2="135.6"/>
  <line class="cls-5" x1="113.25" y1="137.93" x2="113.8" y2="138.7"/>
  <line class="cls-5" x1="113.8" y1="138.7" x2="114.67" y2="139.87"/>
  <line class="cls-5" x1="114.67" y1="139.87" x2="115.55" y2="140.97"/>
  <line class="cls-5" x1="115.55" y1="140.97" x2="116.43" y2="142.11"/>
  <line class="cls-5" x1="116.43" y1="142.11" x2="116.75" y2="142.52"/>
  <line class="cls-5" x1="118.61" y1="144.71" x2="119.06" y2="145.22"/>
  <line class="cls-5" x1="119.06" y1="145.22" x2="119.94" y2="146.25"/>
  <line class="cls-5" x1="119.94" y1="146.25" x2="120.81" y2="147.36"/>
  <line class="cls-5" x1="120.81" y1="147.36" x2="121.69" y2="148.34"/>
  <line class="cls-5" x1="121.69" y1="148.34" x2="122.38" y2="149.06"/>
  <line class="cls-5" x1="124.31" y1="151.2" x2="124.32" y2="151.21"/>
  <line class="cls-5" x1="124.32" y1="151.21" x2="125.19" y2="152.16"/>
  <line class="cls-5" x1="125.19" y1="152.16" x2="126.08" y2="153.01"/>
  <line class="cls-5" x1="126.08" y1="153.01" x2="126.96" y2="153.79"/>
  <line class="cls-5" x1="126.96" y1="153.79" x2="127.83" y2="154.52"/>
  <line class="cls-5" x1="127.83" y1="154.52" x2="128.57" y2="155.07"/>
  <line class="cls-5" x1="130.98" y1="156.64" x2="131.34" y2="156.88"/>
  <line class="cls-5" x1="131.34" y1="156.88" x2="132.21" y2="157.53"/>
  <line class="cls-5" x1="132.21" y1="157.53" x2="133.1" y2="158.13"/>
  <line class="cls-5" x1="133.1" y1="158.13" x2="133.97" y2="158.7"/>
  <line class="cls-5" x1="133.97" y1="158.7" x2="134.85" y2="159.25"/>
  <line class="cls-5" x1="134.85" y1="159.25" x2="135.73" y2="159.8"/>
  <line class="cls-5" x1="135.73" y1="159.8" x2="135.78" y2="159.83"/>
  <line class="cls-5" x1="138.33" y1="161.17" x2="138.35" y2="161.18"/>
  <line class="cls-5" x1="138.35" y1="161.18" x2="139.23" y2="161.66"/>
  <line class="cls-5" x1="139.23" y1="161.66" x2="140.12" y2="162.18"/>
  <line class="cls-5" x1="140.12" y1="162.18" x2="140.99" y2="162.73"/>
  <line class="cls-5" x1="140.99" y1="162.73" x2="141.87" y2="163.27"/>
  <line class="cls-5" x1="141.87" y1="163.27" x2="142.74" y2="163.79"/>
  <line class="cls-5" x1="142.74" y1="163.79" x2="143.3" y2="164.08"/>
  <line class="cls-5" x1="145.94" y1="165.22" x2="146.25" y2="165.33"/>
  <line class="cls-5" x1="146.25" y1="165.33" x2="147.13" y2="165.68"/>
  <line class="cls-5" x1="147.13" y1="165.68" x2="148.01" y2="166.06"/>
  <line class="cls-5" x1="148.01" y1="166.06" x2="148.89" y2="166.46"/>
  <line class="cls-5" x1="148.89" y1="166.46" x2="149.76" y2="166.84"/>
  <line class="cls-5" x1="149.76" y1="166.84" x2="150.64" y2="167.21"/>
  <line class="cls-5" x1="150.64" y1="167.21" x2="151.25" y2="167.47"/>
  <line class="cls-5" x1="154" y1="168.26" x2="154.15" y2="168.29"/>
  <line class="cls-5" x1="154.15" y1="168.29" x2="155.03" y2="168.52"/>
  <line class="cls-5" x1="155.03" y1="168.52" x2="155.9" y2="168.75"/>
  <line class="cls-5" x1="155.9" y1="168.75" x2="156.78" y2="169.03"/>
  <line class="cls-5" x1="156.78" y1="169.03" x2="157.66" y2="169.36"/>
  <line class="cls-5" x1="157.66" y1="169.36" x2="158.53" y2="169.69"/>
  <line class="cls-5" x1="158.53" y1="169.69" x2="159.41" y2="169.96"/>
  <line class="cls-5" x1="159.41" y1="169.96" x2="159.5" y2="169.99"/>
  <line class="cls-5" x1="162.3" y1="170.65" x2="162.92" y2="170.75"/>
  <line class="cls-5" x1="162.92" y1="170.75" x2="163.8" y2="170.91"/>
  <line class="cls-5" x1="163.8" y1="170.91" x2="164.67" y2="171.08"/>
  <line class="cls-5" x1="164.67" y1="171.08" x2="165.55" y2="171.25"/>
  <line class="cls-5" x1="165.55" y1="171.25" x2="166.43" y2="171.44"/>
  <line class="cls-5" x1="166.43" y1="171.44" x2="167.31" y2="171.65"/>
  <line class="cls-5" x1="167.31" y1="171.65" x2="167.94" y2="171.82"/>
  <line class="cls-5" x1="170.74" y1="172.48" x2="170.82" y2="172.5"/>
  <line class="cls-5" x1="170.82" y1="172.5" x2="171.69" y2="172.61"/>
  <line class="cls-5" x1="171.69" y1="172.61" x2="172.57" y2="172.72"/>
  <line class="cls-5" x1="172.57" y1="172.72" x2="173.44" y2="172.84"/>
  <line class="cls-5" x1="173.44" y1="172.84" x2="174.33" y2="172.99"/>
  <line class="cls-5" x1="174.33" y1="172.99" x2="175.21" y2="173.14"/>
  <line class="cls-5" x1="175.21" y1="173.14" x2="176.08" y2="173.29"/>
  <line class="cls-5" x1="176.08" y1="173.29" x2="176.43" y2="173.35"/>
  <line class="cls-5" x1="179.28" y1="173.71" x2="179.59" y2="173.74"/>
  <line class="cls-5" x1="179.59" y1="173.74" x2="180.46" y2="173.83"/>
  <line class="cls-5" x1="180.46" y1="173.83" x2="181.35" y2="173.94"/>
  <line class="cls-5" x1="181.35" y1="173.94" x2="182.22" y2="174.05"/>
  <line class="cls-5" x1="182.22" y1="174.05" x2="183.1" y2="174.15"/>
  <line class="cls-5" x1="183.1" y1="174.15" x2="183.98" y2="174.26"/>
  <line class="cls-5" x1="183.98" y1="174.26" x2="184.85" y2="174.38"/>
  <line class="cls-5" x1="184.85" y1="174.38" x2="185.01" y2="174.39"/>
  <line class="cls-5" x1="187.89" y1="174.62" x2="188.37" y2="174.67"/>
  <line class="cls-5" x1="188.37" y1="174.67" x2="189.24" y2="174.74"/>
  <line class="cls-5" x1="189.24" y1="174.74" x2="190.12" y2="174.82"/>
  <line class="cls-5" x1="190.12" y1="174.82" x2="190.99" y2="174.89"/>
  <line class="cls-5" x1="190.99" y1="174.89" x2="191.87" y2="174.96"/>
  <line class="cls-5" x1="191.87" y1="174.96" x2="192.75" y2="175.01"/>
  <line class="cls-5" x1="192.75" y1="175.01" x2="193.62" y2="175.08"/>
  <line class="cls-5" x1="193.62" y1="175.08" x2="193.63" y2="175.08"/>
  <line class="cls-5" x1="196.49" y1="175.38" x2="197.14" y2="175.44"/>
  <line class="cls-5" x1="197.14" y1="175.44" x2="198.01" y2="175.51"/>
  <line class="cls-5" x1="198.01" y1="175.51" x2="198.89" y2="175.58"/>
  <line class="cls-5" x1="198.89" y1="175.58" x2="199.76" y2="175.64"/>
  <line class="cls-5" x1="199.76" y1="175.64" x2="200.64" y2="175.7"/>
  <line class="cls-5" x1="200.64" y1="175.7" x2="201.52" y2="175.75"/>
  <line class="cls-5" x1="201.52" y1="175.75" x2="202.24" y2="175.8"/>
  <line class="cls-5" x1="205.12" y1="175.93" x2="205.91" y2="175.97"/>
  <line class="cls-5" x1="205.91" y1="175.97" x2="206.78" y2="176.02"/>
  <line class="cls-5" x1="206.78" y1="176.02" x2="207.66" y2="176.06"/>
  <line class="cls-5" x1="207.66" y1="176.06" x2="208.53" y2="176.09"/>
  <line class="cls-5" x1="208.53" y1="176.09" x2="209.42" y2="176.13"/>
  <line class="cls-5" x1="209.42" y1="176.13" x2="210.29" y2="176.15"/>
  <line class="cls-5" x1="210.29" y1="176.15" x2="210.88" y2="176.16"/>
  <line class="cls-5" x1="213.76" y1="176.28" x2="213.8" y2="176.28"/>
  <line class="cls-5" x1="213.8" y1="176.28" x2="214.67" y2="176.33"/>
  <line class="cls-5" x1="214.67" y1="176.33" x2="215.55" y2="176.37"/>
  <line class="cls-5" x1="215.55" y1="176.37" x2="216.44" y2="176.4"/>
  <line class="cls-5" x1="216.44" y1="176.4" x2="217.31" y2="176.43"/>
  <line class="cls-5" x1="217.31" y1="176.43" x2="218.19" y2="176.45"/>
  <line class="cls-5" x1="218.19" y1="176.45" x2="219.06" y2="176.49"/>
  <line class="cls-5" x1="219.06" y1="176.49" x2="219.53" y2="176.51"/>
  <line class="cls-5" x1="222.4" y1="176.62" x2="222.57" y2="176.63"/>
  <line class="cls-5" x1="222.57" y1="176.63" x2="223.45" y2="176.68"/>
  <line class="cls-5" x1="223.45" y1="176.68" x2="224.33" y2="176.72"/>
  <line class="cls-5" x1="224.33" y1="176.72" x2="225.21" y2="176.76"/>
  <line class="cls-5" x1="225.21" y1="176.76" x2="226.08" y2="176.79"/>
  <line class="cls-5" x1="226.08" y1="176.79" x2="226.96" y2="176.82"/>
  <line class="cls-5" x1="226.96" y1="176.82" x2="227.83" y2="176.82"/>
  <line class="cls-5" x1="227.83" y1="176.82" x2="228.17" y2="176.83"/>
  <line class="cls-5" x1="231.04" y1="176.81" x2="231.35" y2="176.81"/>
  <line class="cls-5" x1="231.35" y1="176.81" x2="232.22" y2="176.84"/>
  <line class="cls-5" x1="232.22" y1="176.84" x2="233.1" y2="176.85"/>
  <line class="cls-5" x1="233.1" y1="176.85" x2="233.98" y2="176.88"/>
  <line class="cls-5" x1="233.98" y1="176.88" x2="234.85" y2="176.91"/>
  <line class="cls-5" x1="234.85" y1="176.91" x2="235.73" y2="176.95"/>
  <line class="cls-5" x1="235.73" y1="176.95" x2="236.6" y2="176.96"/>
  <line class="cls-5" x1="236.6" y1="176.96" x2="236.81" y2="176.96"/>
  <line class="cls-5" x1="239.68" y1="177" x2="240.12" y2="177.01"/>
  <line class="cls-5" x1="240.12" y1="177.01" x2="240.99" y2="177.03"/>
  <line class="cls-5" x1="240.99" y1="177.03" x2="241.87" y2="177.04"/>
  <line class="cls-5" x1="241.87" y1="177.04" x2="242.75" y2="177.07"/>
  <line class="cls-5" x1="242.75" y1="177.07" x2="243.62" y2="177.1"/>
  <line class="cls-5" x1="243.62" y1="177.1" x2="244.51" y2="177.12"/>
  <line class="cls-5" x1="244.51" y1="177.12" x2="245.38" y2="177.14"/>
  <line class="cls-5" x1="245.38" y1="177.14" x2="245.46" y2="177.14"/>
  <line class="cls-5" x1="248.33" y1="177.13" x2="248.89" y2="177.13"/>
  <line class="cls-5" x1="248.89" y1="177.13" x2="249.76" y2="177.14"/>
  <line class="cls-5" x1="249.76" y1="177.14" x2="250.64" y2="177.15"/>
  <line class="cls-5" x1="250.64" y1="177.15" x2="251.53" y2="177.17"/>
  <line class="cls-5" x1="251.53" y1="177.17" x2="252.4" y2="177.2"/>
  <line class="cls-5" x1="252.4" y1="177.2" x2="253.28" y2="177.23"/>
  <line class="cls-5" x1="253.28" y1="177.23" x2="254.1" y2="177.24"/>
  <line class="cls-5" x1="256.98" y1="177.25" x2="257.66" y2="177.25"/>
  <line class="cls-5" x1="257.66" y1="177.25" x2="258.54" y2="177.26"/>
  <line class="cls-5" x1="258.54" y1="177.26" x2="259.42" y2="177.26"/>
  <line class="cls-5" x1="259.42" y1="177.26" x2="260.3" y2="177.27"/>
  <line class="cls-5" x1="260.3" y1="177.27" x2="261.17" y2="177.29"/>
  <line class="cls-5" x1="261.17" y1="177.29" x2="262.05" y2="177.31"/>
  <line class="cls-5" x1="262.05" y1="177.31" x2="262.74" y2="177.32"/>
  <line class="cls-5" x1="265.62" y1="177.32" x2="266.44" y2="177.31"/>
  <line class="cls-5" x1="266.44" y1="177.31" x2="267.31" y2="177.32"/>
  <line class="cls-5" x1="267.31" y1="177.32" x2="268.19" y2="177.33"/>
  <line class="cls-5" x1="268.19" y1="177.33" x2="269.07" y2="177.35"/>
  <line class="cls-5" x1="269.07" y1="177.35" x2="269.94" y2="177.37"/>
  <line class="cls-5" x1="269.94" y1="177.37" x2="270.82" y2="177.38"/>
  <line class="cls-5" x1="270.82" y1="177.38" x2="271.38" y2="177.39"/>
  <line class="cls-5" x1="274.26" y1="177.42" x2="274.33" y2="177.42"/>
  <line class="cls-5" x1="274.33" y1="177.42" x2="275.21" y2="177.41"/>
  <line class="cls-5" x1="275.21" y1="177.41" x2="276.08" y2="177.41"/>
  <line class="cls-5" x1="276.08" y1="177.41" x2="276.96" y2="177.4"/>
  <line class="cls-5" x1="276.96" y1="177.4" x2="277.84" y2="177.41"/>
  <line class="cls-5" x1="277.84" y1="177.41" x2="278.71" y2="177.4"/>
  <line class="cls-5" x1="278.71" y1="177.4" x2="279.6" y2="177.4"/>
  <line class="cls-5" x1="279.6" y1="177.4" x2="280.02" y2="177.4"/>
  <line class="cls-5" x1="282.9" y1="177.41" x2="283.1" y2="177.41"/>
  <line class="cls-5" x1="283.1" y1="177.41" x2="283.98" y2="177.42"/>
  <line class="cls-5" x1="283.98" y1="177.42" x2="284.85" y2="177.44"/>
  <line class="cls-5" x1="284.85" y1="177.44" x2="285.73" y2="177.45"/>
  <line class="cls-5" x1="285.73" y1="177.45" x2="286.62" y2="177.45"/>
  <line class="cls-5" x1="286.62" y1="177.45" x2="287.49" y2="177.45"/>
  <line class="cls-5" x1="287.49" y1="177.45" x2="288.37" y2="177.46"/>
  <line class="cls-5" x1="288.37" y1="177.46" x2="288.66" y2="177.47"/>
  <line class="cls-5" x1="291.54" y1="177.48" x2="291.87" y2="177.48"/>
  <line class="cls-5" x1="291.87" y1="177.48" x2="292.75" y2="177.49"/>
  <line class="cls-5" x1="292.75" y1="177.49" x2="293.63" y2="177.49"/>
  <line class="cls-5" x1="293.63" y1="177.49" x2="294.51" y2="177.5"/>
  <line class="cls-5" x1="294.51" y1="177.5" x2="295.38" y2="177.51"/>
  <line class="cls-5" x1="295.38" y1="177.51" x2="296.26" y2="177.52"/>
  <line class="cls-5" x1="296.26" y1="177.52" x2="297.14" y2="177.53"/>
  <line class="cls-3" x1="34.85" y1="166.99" x2="35.72" y2="165.38"/>
  <line class="cls-3" x1="35.72" y1="165.38" x2="36.6" y2="163.86"/>
  <line class="cls-3" x1="36.6" y1="163.86" x2="37.48" y2="162.29"/>
  <line class="cls-3" x1="37.48" y1="162.29" x2="37.67" y2="161.97"/>
  <line class="cls-3" x1="38.82" y1="159.34" x2="39.23" y2="158.09"/>
  <line class="cls-3" x1="39.23" y1="158.09" x2="40.1" y2="154.99"/>
  <line class="cls-3" x1="40.1" y1="154.99" x2="40.41" y2="153.8"/>
  <line class="cls-3" x1="41.12" y1="151.01" x2="41.87" y2="147.9"/>
  <line class="cls-3" x1="41.87" y1="147.9" x2="42.4" y2="145.39"/>
  <line class="cls-3" x1="43" y1="142.57" x2="43.62" y2="139.58"/>
  <line class="cls-3" x1="43.62" y1="139.58" x2="44.13" y2="136.93"/>
  <line class="cls-3" x1="44.67" y1="134.09" x2="45.37" y2="130.29"/>
  <line class="cls-3" x1="45.37" y1="130.29" x2="45.7" y2="128.43"/>
  <line class="cls-3" x1="46.19" y1="125.59" x2="46.25" y2="125.28"/>
  <line class="cls-3" x1="46.25" y1="125.28" x2="47.12" y2="120.28"/>
  <line class="cls-3" x1="47.12" y1="120.28" x2="47.18" y2="119.91"/>
  <line class="cls-3" x1="47.64" y1="117.07" x2="48" y2="114.79"/>
  <line class="cls-3" x1="48" y1="114.79" x2="48.55" y2="111.38"/>
  <line class="cls-3" x1="49.01" y1="108.53" x2="49.76" y2="104.01"/>
  <line class="cls-3" x1="49.76" y1="104.01" x2="49.95" y2="102.85"/>
  <line class="cls-3" x1="50.4" y1="100" x2="50.64" y2="98.54"/>
  <line class="cls-3" x1="50.64" y1="98.54" x2="51.38" y2="94.32"/>
  <line class="cls-3" x1="51.92" y1="91.49" x2="52.39" y2="89.18"/>
  <line class="cls-3" x1="52.39" y1="89.18" x2="53" y2="85.83"/>
  <line class="cls-3" x1="53.54" y1="83" x2="54.14" y2="80.01"/>
  <line class="cls-3" x1="54.14" y1="80.01" x2="54.76" y2="77.37"/>
  <line class="cls-3" x1="55.37" y1="74.55" x2="55.9" y2="72.01"/>
  <line class="cls-3" x1="55.9" y1="72.01" x2="56.62" y2="68.93"/>
  <line class="cls-3" x1="57.38" y1="66.16" x2="57.65" y2="65.21"/>
  <line class="cls-3" x1="57.65" y1="65.21" x2="58.53" y2="61.41"/>
  <line class="cls-3" x1="58.53" y1="61.41" x2="58.78" y2="60.58"/>
  <line class="cls-3" x1="59.72" y1="57.86" x2="60.28" y2="56.67"/>
  <line class="cls-3" x1="60.28" y1="56.67" x2="61.16" y2="54.19"/>
  <line class="cls-3" x1="61.16" y1="54.19" x2="62.03" y2="52.88"/>
  <line class="cls-3" x1="62.03" y1="52.88" x2="62.27" y2="52.81"/>
  <line class="cls-3" x1="64.31" y1="50.97" x2="64.67" y2="50.76"/>
  <line class="cls-3" x1="64.67" y1="50.76" x2="65.55" y2="50.97"/>
  <line class="cls-3" x1="65.55" y1="50.97" x2="66.42" y2="50.52"/>
  <line class="cls-3" x1="66.42" y1="50.52" x2="67.3" y2="50.87"/>
  <line class="cls-3" x1="67.3" y1="50.87" x2="68.18" y2="52.09"/>
  <line class="cls-3" x1="68.18" y1="52.09" x2="69.05" y2="52.58"/>
  <line class="cls-3" x1="70.57" y1="55.01" x2="70.81" y2="55.47"/>
  <line class="cls-3" x1="70.81" y1="55.47" x2="71.69" y2="56.28"/>
  <line class="cls-3" x1="71.69" y1="56.28" x2="72.57" y2="57.6"/>
  <line class="cls-3" x1="72.57" y1="57.6" x2="73.44" y2="59.62"/>
  <line class="cls-3" x1="73.44" y1="59.62" x2="73.61" y2="59.83"/>
  <line class="cls-3" x1="75.24" y1="62.18" x2="76.07" y2="64.04"/>
  <line class="cls-3" x1="76.07" y1="64.04" x2="76.96" y2="65.51"/>
  <line class="cls-3" x1="76.96" y1="65.51" x2="77.79" y2="67.34"/>
  <line class="cls-3" x1="78.74" y1="70.06" x2="79.58" y2="71.87"/>
  <line class="cls-3" x1="79.58" y1="71.87" x2="80.46" y2="73.85"/>
  <line class="cls-3" x1="80.46" y1="73.85" x2="81.05" y2="75.34"/>
  <line class="cls-3" x1="82.3" y1="77.93" x2="83.09" y2="79.49"/>
  <line class="cls-3" x1="83.09" y1="79.49" x2="83.97" y2="81.89"/>
  <line class="cls-3" x1="83.97" y1="81.89" x2="84.63" y2="83.2"/>
  <line class="cls-3" x1="85.84" y1="85.8" x2="86.6" y2="87.84"/>
  <line class="cls-3" x1="86.6" y1="87.84" x2="87.48" y2="89.73"/>
  <line class="cls-3" x1="87.48" y1="89.73" x2="88.13" y2="91.09"/>
  <line class="cls-3" x1="89.23" y1="93.75" x2="89.23" y2="93.76"/>
  <line class="cls-3" x1="89.23" y1="93.76" x2="90.11" y2="95.62"/>
  <line class="cls-3" x1="90.11" y1="95.62" x2="90.99" y2="97.5"/>
  <line class="cls-3" x1="90.99" y1="97.5" x2="91.61" y2="99"/>
  <line class="cls-3" x1="92.84" y1="101.6" x2="93.62" y2="103"/>
  <line class="cls-3" x1="93.62" y1="103" x2="94.5" y2="104.97"/>
  <line class="cls-3" x1="94.5" y1="104.97" x2="95.37" y2="106.64"/>
  <line class="cls-3" x1="95.37" y1="106.64" x2="95.43" y2="106.75"/>
  <line class="cls-3" x1="96.71" y1="109.32" x2="97.12" y2="110.24"/>
  <line class="cls-3" x1="97.12" y1="110.24" x2="98.01" y2="112.07"/>
  <line class="cls-3" x1="98.01" y1="112.07" x2="98.89" y2="113.77"/>
  <line class="cls-3" x1="98.89" y1="113.77" x2="99.21" y2="114.52"/>
  <line class="cls-3" x1="100.44" y1="117.12" x2="100.64" y2="117.51"/>
  <line class="cls-3" x1="100.64" y1="117.51" x2="101.51" y2="118.97"/>
  <line class="cls-3" x1="101.51" y1="118.97" x2="102.39" y2="120.63"/>
  <line class="cls-3" x1="102.39" y1="120.63" x2="103.19" y2="122.18"/>
  <line class="cls-3" x1="104.71" y1="124.63" x2="105.03" y2="125.17"/>
  <line class="cls-3" x1="105.03" y1="125.17" x2="105.9" y2="126.76"/>
  <line class="cls-3" x1="105.9" y1="126.76" x2="106.78" y2="128.01"/>
  <line class="cls-3" x1="106.78" y1="128.01" x2="107.66" y2="129.4"/>
  <line class="cls-3" x1="107.66" y1="129.4" x2="107.74" y2="129.53"/>
  <line class="cls-3" x1="109.38" y1="131.88" x2="109.41" y2="131.92"/>
  <line class="cls-3" x1="109.41" y1="131.92" x2="110.28" y2="133.28"/>
  <line class="cls-3" x1="110.28" y1="133.28" x2="111.16" y2="134.6"/>
  <line class="cls-3" x1="111.16" y1="134.6" x2="112.05" y2="135.68"/>
  <line class="cls-3" x1="112.05" y1="135.68" x2="112.66" y2="136.62"/>
  <line class="cls-3" x1="114.32" y1="138.97" x2="114.67" y2="139.39"/>
  <line class="cls-3" x1="114.67" y1="139.39" x2="115.55" y2="140.52"/>
  <line class="cls-3" x1="115.55" y1="140.52" x2="116.43" y2="141.65"/>
  <line class="cls-3" x1="116.43" y1="141.65" x2="117.3" y2="142.44"/>
  <line class="cls-3" x1="117.3" y1="142.44" x2="118.13" y2="143.29"/>
  <line class="cls-3" x1="120.07" y1="145.41" x2="120.81" y2="146.3"/>
  <line class="cls-3" x1="120.81" y1="146.3" x2="121.69" y2="147.35"/>
  <line class="cls-3" x1="121.69" y1="147.35" x2="122.57" y2="148.24"/>
  <line class="cls-3" x1="122.57" y1="148.24" x2="123.44" y2="149.19"/>
  <line class="cls-3" x1="123.44" y1="149.19" x2="123.91" y2="149.71"/>
  <line class="cls-3" x1="126.02" y1="151.67" x2="126.08" y2="151.74"/>
  <line class="cls-3" x1="126.08" y1="151.74" x2="126.96" y2="152.57"/>
  <line class="cls-3" x1="126.96" y1="152.57" x2="127.83" y2="153.24"/>
  <line class="cls-3" x1="127.83" y1="153.24" x2="128.71" y2="153.9"/>
  <line class="cls-3" x1="128.71" y1="153.9" x2="129.58" y2="154.64"/>
  <line class="cls-3" x1="129.58" y1="154.64" x2="130.46" y2="155.24"/>
  <line class="cls-3" x1="130.46" y1="155.24" x2="130.5" y2="155.27"/>
  <line class="cls-3" x1="132.77" y1="157.03" x2="133.1" y2="157.25"/>
  <line class="cls-3" x1="133.1" y1="157.25" x2="133.97" y2="157.88"/>
  <line class="cls-3" x1="133.97" y1="157.88" x2="134.85" y2="158.51"/>
  <line class="cls-3" x1="134.85" y1="158.51" x2="135.73" y2="159.05"/>
  <line class="cls-3" x1="135.73" y1="159.05" x2="136.6" y2="159.56"/>
  <line class="cls-3" x1="136.6" y1="159.56" x2="137.48" y2="160.06"/>
  <line class="cls-3" x1="137.48" y1="160.06" x2="137.62" y2="160.14"/>
  <line class="cls-3" x1="140.11" y1="161.6" x2="140.12" y2="161.61"/>
  <line class="cls-3" x1="140.12" y1="161.61" x2="140.99" y2="162.18"/>
  <line class="cls-3" x1="140.99" y1="162.18" x2="141.87" y2="162.63"/>
  <line class="cls-3" x1="141.87" y1="162.63" x2="142.74" y2="163.1"/>
  <line class="cls-3" x1="142.74" y1="163.1" x2="143.62" y2="163.52"/>
  <line class="cls-3" x1="143.62" y1="163.52" x2="144.5" y2="163.87"/>
  <line class="cls-3" x1="144.5" y1="163.87" x2="145.24" y2="164.2"/>
  <line class="cls-3" x1="147.89" y1="165.33" x2="148.01" y2="165.39"/>
  <line class="cls-3" x1="148.01" y1="165.39" x2="148.89" y2="165.75"/>
  <line class="cls-3" x1="148.89" y1="165.75" x2="149.76" y2="166.09"/>
  <line class="cls-3" x1="149.76" y1="166.09" x2="150.64" y2="166.44"/>
  <line class="cls-3" x1="150.64" y1="166.44" x2="151.51" y2="166.79"/>
  <line class="cls-3" x1="151.51" y1="166.79" x2="152.39" y2="167.07"/>
  <line class="cls-3" x1="152.39" y1="167.07" x2="153.26" y2="167.39"/>
  <line class="cls-3" x1="156" y1="168.28" x2="156.78" y2="168.57"/>
  <line class="cls-3" x1="156.78" y1="168.57" x2="157.66" y2="168.83"/>
  <line class="cls-3" x1="157.66" y1="168.83" x2="158.53" y2="169.11"/>
  <line class="cls-3" x1="158.53" y1="169.11" x2="159.41" y2="169.35"/>
  <line class="cls-3" x1="159.41" y1="169.35" x2="160.28" y2="169.52"/>
  <line class="cls-3" x1="160.28" y1="169.52" x2="161.17" y2="169.75"/>
  <line class="cls-3" x1="161.17" y1="169.75" x2="161.54" y2="169.85"/>
  <line class="cls-3" x1="164.32" y1="170.6" x2="164.67" y2="170.72"/>
  <line class="cls-3" x1="164.67" y1="170.72" x2="165.55" y2="170.94"/>
  <line class="cls-3" x1="165.55" y1="170.94" x2="166.43" y2="171.12"/>
  <line class="cls-3" x1="166.43" y1="171.12" x2="167.31" y2="171.27"/>
  <line class="cls-3" x1="167.31" y1="171.27" x2="168.19" y2="171.38"/>
  <line class="cls-3" x1="168.19" y1="171.38" x2="169.06" y2="171.5"/>
  <line class="cls-3" x1="169.06" y1="171.5" x2="169.94" y2="171.63"/>
  <line class="cls-3" x1="169.94" y1="171.63" x2="169.97" y2="171.64"/>
  <line class="cls-3" x1="172.79" y1="172.26" x2="173.44" y2="172.41"/>
  <line class="cls-3" x1="173.44" y1="172.41" x2="174.33" y2="172.61"/>
  <line class="cls-3" x1="174.33" y1="172.61" x2="175.21" y2="172.81"/>
  <line class="cls-3" x1="175.21" y1="172.81" x2="176.08" y2="172.93"/>
  <line class="cls-3" x1="176.08" y1="172.93" x2="176.96" y2="173.03"/>
  <line class="cls-3" x1="176.96" y1="173.03" x2="177.83" y2="173.15"/>
  <line class="cls-3" x1="177.83" y1="173.15" x2="178.46" y2="173.24"/>
  <line class="cls-3" x1="181.31" y1="173.65" x2="181.35" y2="173.66"/>
  <line class="cls-3" x1="181.35" y1="173.66" x2="182.22" y2="173.81"/>
  <line class="cls-3" x1="182.22" y1="173.81" x2="183.1" y2="173.93"/>
  <line class="cls-3" x1="183.1" y1="173.93" x2="183.98" y2="174"/>
  <line class="cls-3" x1="183.98" y1="174" x2="184.85" y2="174.09"/>
  <line class="cls-3" x1="184.85" y1="174.09" x2="185.73" y2="174.19"/>
  <line class="cls-3" x1="185.73" y1="174.19" x2="186.6" y2="174.26"/>
  <line class="cls-3" x1="186.6" y1="174.26" x2="187.03" y2="174.29"/>
  <line class="cls-3" x1="189.89" y1="174.58" x2="190.12" y2="174.6"/>
  <line class="cls-3" x1="190.12" y1="174.6" x2="190.99" y2="174.67"/>
  <line class="cls-3" x1="190.99" y1="174.67" x2="191.87" y2="174.75"/>
  <line class="cls-3" x1="191.87" y1="174.75" x2="192.75" y2="174.81"/>
  <line class="cls-3" x1="192.75" y1="174.81" x2="193.62" y2="174.9"/>
  <line class="cls-3" x1="193.62" y1="174.9" x2="194.5" y2="174.95"/>
  <line class="cls-3" x1="194.5" y1="174.95" x2="195.38" y2="175.02"/>
  <line class="cls-3" x1="195.38" y1="175.02" x2="195.64" y2="175.03"/>
  <line class="cls-3" x1="198.51" y1="175.24" x2="198.89" y2="175.27"/>
  <line class="cls-3" x1="198.89" y1="175.27" x2="199.76" y2="175.34"/>
  <line class="cls-3" x1="199.76" y1="175.34" x2="200.64" y2="175.38"/>
  <line class="cls-3" x1="200.64" y1="175.38" x2="201.52" y2="175.41"/>
  <line class="cls-3" x1="201.52" y1="175.41" x2="202.4" y2="175.45"/>
  <line class="cls-3" x1="202.4" y1="175.45" x2="203.28" y2="175.47"/>
  <line class="cls-3" x1="203.28" y1="175.47" x2="204.15" y2="175.5"/>
  <line class="cls-3" x1="204.15" y1="175.5" x2="204.27" y2="175.51"/>
  <line class="cls-3" x1="207.15" y1="175.7" x2="207.66" y2="175.74"/>
  <line class="cls-3" x1="207.66" y1="175.74" x2="208.53" y2="175.81"/>
  <line class="cls-3" x1="208.53" y1="175.81" x2="209.42" y2="175.9"/>
  <line class="cls-3" x1="209.42" y1="175.9" x2="210.29" y2="175.97"/>
  <line class="cls-3" x1="210.29" y1="175.97" x2="211.17" y2="176.02"/>
  <line class="cls-3" x1="211.17" y1="176.02" x2="212.05" y2="176.06"/>
  <line class="cls-3" x1="212.05" y1="176.06" x2="212.89" y2="176.1"/>
  <line class="cls-3" x1="215.77" y1="176.14" x2="216.44" y2="176.14"/>
  <line class="cls-3" x1="216.44" y1="176.14" x2="217.31" y2="176.16"/>
  <line class="cls-3" x1="217.31" y1="176.16" x2="218.19" y2="176.2"/>
  <line class="cls-3" x1="218.19" y1="176.2" x2="219.06" y2="176.25"/>
  <line class="cls-3" x1="219.06" y1="176.25" x2="219.94" y2="176.32"/>
  <line class="cls-3" x1="219.94" y1="176.32" x2="220.82" y2="176.4"/>
  <line class="cls-3" x1="220.82" y1="176.4" x2="221.52" y2="176.44"/>
  <line class="cls-3" x1="224.41" y1="176.47" x2="225.21" y2="176.47"/>
  <line class="cls-3" x1="225.21" y1="176.47" x2="226.08" y2="176.49"/>
  <line class="cls-3" x1="226.08" y1="176.49" x2="226.96" y2="176.53"/>
  <line class="cls-3" x1="226.96" y1="176.53" x2="227.83" y2="176.58"/>
  <line class="cls-3" x1="227.83" y1="176.58" x2="228.71" y2="176.64"/>
  <line class="cls-3" x1="228.71" y1="176.64" x2="229.59" y2="176.7"/>
  <line class="cls-3" x1="229.59" y1="176.7" x2="230.17" y2="176.73"/>
  <line class="cls-3" x1="233.05" y1="176.78" x2="233.1" y2="176.78"/>
  <line class="cls-3" x1="233.1" y1="176.78" x2="233.98" y2="176.79"/>
  <line class="cls-3" x1="233.98" y1="176.79" x2="234.85" y2="176.8"/>
  <line class="cls-3" x1="234.85" y1="176.8" x2="235.73" y2="176.82"/>
  <line class="cls-3" x1="235.73" y1="176.82" x2="236.6" y2="176.85"/>
  <line class="cls-3" x1="236.6" y1="176.85" x2="237.49" y2="176.87"/>
  <line class="cls-3" x1="237.49" y1="176.87" x2="238.37" y2="176.89"/>
  <line class="cls-3" x1="238.37" y1="176.89" x2="238.81" y2="176.89"/>
  <line class="cls-3" x1="241.69" y1="176.9" x2="241.87" y2="176.9"/>
  <line class="cls-3" x1="241.87" y1="176.9" x2="242.75" y2="176.92"/>
  <line class="cls-3" x1="242.75" y1="176.92" x2="243.62" y2="176.94"/>
  <line class="cls-3" x1="243.62" y1="176.94" x2="244.51" y2="176.96"/>
  <line class="cls-3" x1="244.51" y1="176.96" x2="245.38" y2="176.98"/>
  <line class="cls-3" x1="245.38" y1="176.98" x2="246.26" y2="177"/>
  <line class="cls-3" x1="246.26" y1="177" x2="247.14" y2="177.01"/>
  <line class="cls-3" x1="247.14" y1="177.01" x2="247.45" y2="177.02"/>
  <line class="cls-3" x1="250.33" y1="177.11" x2="250.64" y2="177.12"/>
  <line class="cls-3" x1="250.64" y1="177.12" x2="251.53" y2="177.13"/>
  <line class="cls-3" x1="251.53" y1="177.13" x2="252.4" y2="177.14"/>
  <line class="cls-3" x1="252.4" y1="177.14" x2="253.28" y2="177.13"/>
  <line class="cls-3" x1="253.28" y1="177.13" x2="254.15" y2="177.11"/>
  <line class="cls-3" x1="254.15" y1="177.11" x2="255.03" y2="177.11"/>
  <line class="cls-3" x1="255.03" y1="177.11" x2="255.91" y2="177.12"/>
  <line class="cls-3" x1="255.91" y1="177.12" x2="256.09" y2="177.13"/>
  <line class="cls-3" x1="258.97" y1="177.2" x2="259.42" y2="177.2"/>
  <line class="cls-3" x1="259.42" y1="177.2" x2="260.3" y2="177.21"/>
  <line class="cls-3" x1="260.3" y1="177.21" x2="261.17" y2="177.22"/>
  <line class="cls-3" x1="261.17" y1="177.22" x2="262.05" y2="177.23"/>
  <line class="cls-3" x1="262.05" y1="177.23" x2="262.92" y2="177.25"/>
  <line class="cls-3" x1="262.92" y1="177.25" x2="263.8" y2="177.27"/>
  <line class="cls-3" x1="263.8" y1="177.27" x2="264.68" y2="177.29"/>
  <line class="cls-3" x1="264.68" y1="177.29" x2="264.74" y2="177.29"/>
  <line class="cls-3" x1="267.61" y1="177.31" x2="268.19" y2="177.31"/>
  <line class="cls-3" x1="268.19" y1="177.31" x2="269.07" y2="177.32"/>
  <line class="cls-3" x1="269.07" y1="177.32" x2="269.94" y2="177.33"/>
  <line class="cls-3" x1="269.94" y1="177.33" x2="270.82" y2="177.33"/>
  <line class="cls-3" x1="270.82" y1="177.33" x2="271.69" y2="177.34"/>
  <line class="cls-3" x1="271.69" y1="177.34" x2="272.58" y2="177.34"/>
  <line class="cls-3" x1="272.58" y1="177.34" x2="273.38" y2="177.34"/>
  <line class="cls-3" x1="276.26" y1="177.35" x2="276.96" y2="177.36"/>
  <line class="cls-3" x1="276.96" y1="177.36" x2="277.84" y2="177.38"/>
  <line class="cls-3" x1="277.84" y1="177.38" x2="278.71" y2="177.4"/>
  <line class="cls-3" x1="278.71" y1="177.4" x2="279.6" y2="177.41"/>
  <line class="cls-3" x1="279.6" y1="177.41" x2="280.47" y2="177.44"/>
  <line class="cls-3" x1="280.47" y1="177.44" x2="281.35" y2="177.45"/>
  <line class="cls-3" x1="281.35" y1="177.45" x2="282.03" y2="177.45"/>
  <line class="cls-3" x1="284.9" y1="177.45" x2="285.73" y2="177.45"/>
  <line class="cls-3" x1="285.73" y1="177.45" x2="286.62" y2="177.45"/>
  <line class="cls-3" x1="286.62" y1="177.45" x2="287.49" y2="177.46"/>
  <line class="cls-3" x1="287.49" y1="177.46" x2="288.37" y2="177.47"/>
  <line class="cls-3" x1="288.37" y1="177.47" x2="289.24" y2="177.48"/>
  <line class="cls-3" x1="289.24" y1="177.48" x2="290.12" y2="177.48"/>
  <line class="cls-3" x1="290.12" y1="177.48" x2="290.67" y2="177.48"/>
  <line class="cls-3" x1="293.55" y1="177.46" x2="293.63" y2="177.46"/>
  <line class="cls-3" x1="293.63" y1="177.46" x2="294.51" y2="177.46"/>
  <line class="cls-3" x1="294.51" y1="177.46" x2="295.38" y2="177.46"/>
  <line class="cls-3" x1="295.38" y1="177.46" x2="296.26" y2="177.47"/>
  <line class="cls-3" x1="296.26" y1="177.47" x2="297.14" y2="177.48"/>
  <line class="cls-2" x1="113.54" y1="25.16" x2="113.54" y2="25.45"/>
  <line class="cls-2" x1="113.54" y1="27.46" x2="113.54" y2="27.75"/>
  <line class="cls-2" x1="113.54" y1="29.77" x2="113.54" y2="30.05"/>
  <line class="cls-2" x1="113.54" y1="32.07" x2="113.54" y2="32.36"/>
  <line class="cls-2" x1="113.54" y1="34.38" x2="113.54" y2="34.66"/>
  <line class="cls-2" x1="113.54" y1="36.68" x2="113.54" y2="36.97"/>
  <line class="cls-2" x1="113.54" y1="38.99" x2="113.54" y2="39.27"/>
  <line class="cls-2" x1="113.54" y1="41.29" x2="113.54" y2="41.58"/>
  <line class="cls-2" x1="113.54" y1="43.6" x2="113.54" y2="43.88"/>
  <line class="cls-2" x1="113.54" y1="45.9" x2="113.54" y2="46.19"/>
  <line class="cls-2" x1="113.54" y1="48.2" x2="113.54" y2="48.49"/>
  <line class="cls-2" x1="113.54" y1="50.51" x2="113.54" y2="50.79"/>
  <line class="cls-2" x1="113.54" y1="52.81" x2="113.54" y2="53.1"/>
  <line class="cls-2" x1="113.54" y1="55.12" x2="113.54" y2="55.4"/>
  <line class="cls-2" x1="113.54" y1="57.41" x2="113.54" y2="57.71"/>
  <line class="cls-2" x1="113.54" y1="59.72" x2="113.54" y2="60.01"/>
  <line class="cls-2" x1="113.54" y1="62.02" x2="113.54" y2="62.32"/>
  <line class="cls-2" x1="113.54" y1="64.33" x2="113.54" y2="64.62"/>
  <line class="cls-2" x1="113.54" y1="66.63" x2="113.54" y2="66.93"/>
  <line class="cls-2" x1="113.54" y1="68.93" x2="113.54" y2="69.23"/>
  <line class="cls-2" x1="113.54" y1="71.24" x2="113.54" y2="71.53"/>
  <line class="cls-2" x1="113.54" y1="73.54" x2="113.54" y2="73.84"/>
  <line class="cls-2" x1="113.54" y1="75.85" x2="113.54" y2="76.14"/>
  <line class="cls-2" x1="113.54" y1="78.15" x2="113.54" y2="78.44"/>
  <line class="cls-2" x1="113.54" y1="80.46" x2="113.54" y2="80.74"/>
  <line class="cls-2" x1="113.54" y1="82.76" x2="113.54" y2="83.05"/>
  <line class="cls-2" x1="113.54" y1="85.07" x2="113.54" y2="85.35"/>
  <line class="cls-2" x1="113.54" y1="87.37" x2="113.54" y2="87.66"/>
  <line class="cls-2" x1="113.54" y1="89.68" x2="113.54" y2="89.96"/>
  <line class="cls-2" x1="113.54" y1="91.98" x2="113.54" y2="92.27"/>
  <line class="cls-2" x1="113.54" y1="94.28" x2="113.54" y2="94.57"/>
  <line class="cls-2" x1="113.54" y1="96.59" x2="113.54" y2="96.87"/>
  <line class="cls-2" x1="113.54" y1="98.89" x2="113.54" y2="99.18"/>
  <line class="cls-2" x1="113.54" y1="101.2" x2="113.54" y2="101.48"/>
  <line class="cls-2" x1="113.54" y1="103.5" x2="113.54" y2="103.79"/>
  <line class="cls-2" x1="113.54" y1="105.81" x2="113.54" y2="106.09"/>
  <line class="cls-2" x1="113.54" y1="108.11" x2="113.54" y2="108.4"/>
  <line class="cls-2" x1="113.54" y1="110.42" x2="113.54" y2="110.7"/>
  <line class="cls-2" x1="113.54" y1="112.71" x2="113.54" y2="113.01"/>
  <line class="cls-2" x1="113.54" y1="115.01" x2="113.54" y2="115.31"/>
  <line class="cls-2" x1="113.54" y1="117.32" x2="113.54" y2="117.61"/>
  <line class="cls-2" x1="113.54" y1="119.62" x2="113.54" y2="119.92"/>
  <line class="cls-2" x1="113.54" y1="121.93" x2="113.54" y2="122.22"/>
  <line class="cls-2" x1="113.54" y1="124.23" x2="113.54" y2="124.53"/>
  <line class="cls-2" x1="113.54" y1="126.54" x2="113.54" y2="126.83"/>
  <line class="cls-2" x1="113.54" y1="128.84" x2="113.54" y2="129.14"/>
  <line class="cls-2" x1="113.54" y1="131.15" x2="113.54" y2="131.43"/>
  <line class="cls-2" x1="113.54" y1="133.45" x2="113.54" y2="133.74"/>
  <line class="cls-2" x1="113.54" y1="135.75" x2="113.54" y2="136.04"/>
  <line class="cls-2" x1="113.54" y1="138.06" x2="113.54" y2="138.34"/>
  <line class="cls-2" x1="113.54" y1="140.36" x2="113.54" y2="140.65"/>
  <line class="cls-2" x1="113.54" y1="142.67" x2="113.54" y2="142.95"/>
  <line class="cls-2" x1="113.54" y1="144.97" x2="113.54" y2="145.26"/>
  <line class="cls-2" x1="113.54" y1="147.28" x2="113.54" y2="147.56"/>
  <line class="cls-2" x1="113.54" y1="149.58" x2="113.54" y2="149.87"/>
  <line class="cls-2" x1="113.54" y1="151.89" x2="113.54" y2="152.17"/>
  <line class="cls-2" x1="113.54" y1="154.19" x2="113.54" y2="154.48"/>
  <line class="cls-2" x1="113.54" y1="156.49" x2="113.54" y2="156.78"/>
  <line class="cls-2" x1="113.54" y1="158.8" x2="113.54" y2="159.08"/>
  <line class="cls-2" x1="113.54" y1="161.1" x2="113.54" y2="161.39"/>
  <line class="cls-2" x1="113.54" y1="163.41" x2="113.54" y2="163.69"/>
  <line class="cls-2" x1="113.54" y1="165.7" x2="113.54" y2="166"/>
  <line class="cls-2" x1="113.54" y1="168.01" x2="113.54" y2="168.3"/>
  <line class="cls-2" x1="113.54" y1="170.31" x2="113.54" y2="170.61"/>
  <line class="cls-2" x1="113.54" y1="172.62" x2="113.54" y2="172.91"/>
  <line class="cls-2" x1="113.54" y1="174.92" x2="113.54" y2="175.22"/>
  <line class="cls-2" x1="113.54" y1="177.22" x2="113.54" y2="177.52"/>
  <line class="cls-2" x1="218.45" y1="25.16" x2="218.45" y2="25.45"/>
  <line class="cls-2" x1="218.45" y1="27.46" x2="218.45" y2="27.75"/>
  <line class="cls-2" x1="218.45" y1="29.77" x2="218.45" y2="30.05"/>
  <line class="cls-2" x1="218.45" y1="32.07" x2="218.45" y2="32.36"/>
  <line class="cls-2" x1="218.45" y1="34.38" x2="218.45" y2="34.66"/>
  <line class="cls-2" x1="218.45" y1="36.68" x2="218.45" y2="36.97"/>
  <line class="cls-2" x1="218.45" y1="38.99" x2="218.45" y2="39.27"/>
  <line class="cls-2" x1="218.45" y1="41.29" x2="218.45" y2="41.58"/>
  <line class="cls-2" x1="218.45" y1="43.6" x2="218.45" y2="43.88"/>
  <line class="cls-2" x1="218.45" y1="45.9" x2="218.45" y2="46.19"/>
  <line class="cls-2" x1="218.45" y1="48.2" x2="218.45" y2="48.49"/>
  <line class="cls-2" x1="218.45" y1="50.51" x2="218.45" y2="50.79"/>
  <line class="cls-2" x1="218.45" y1="52.81" x2="218.45" y2="53.1"/>
  <line class="cls-2" x1="218.45" y1="55.12" x2="218.45" y2="55.4"/>
  <line class="cls-2" x1="218.45" y1="57.41" x2="218.45" y2="57.71"/>
  <line class="cls-2" x1="218.45" y1="59.72" x2="218.45" y2="60.01"/>
  <line class="cls-2" x1="218.45" y1="62.02" x2="218.45" y2="62.32"/>
  <line class="cls-2" x1="218.45" y1="64.33" x2="218.45" y2="64.62"/>
  <line class="cls-2" x1="218.45" y1="66.63" x2="218.45" y2="66.93"/>
  <line class="cls-2" x1="218.45" y1="68.93" x2="218.45" y2="69.23"/>
  <line class="cls-2" x1="218.45" y1="71.24" x2="218.45" y2="71.53"/>
  <line class="cls-2" x1="218.45" y1="73.54" x2="218.45" y2="73.84"/>
  <line class="cls-2" x1="218.45" y1="75.85" x2="218.45" y2="76.14"/>
  <line class="cls-2" x1="218.45" y1="78.15" x2="218.45" y2="78.44"/>
  <line class="cls-2" x1="218.45" y1="80.46" x2="218.45" y2="80.74"/>
  <line class="cls-2" x1="218.45" y1="82.76" x2="218.45" y2="83.05"/>
  <line class="cls-2" x1="218.45" y1="85.07" x2="218.45" y2="85.35"/>
  <line class="cls-2" x1="218.45" y1="87.37" x2="218.45" y2="87.66"/>
  <line class="cls-2" x1="218.45" y1="89.68" x2="218.45" y2="89.96"/>
  <line class="cls-2" x1="218.45" y1="91.98" x2="218.45" y2="92.27"/>
  <line class="cls-2" x1="218.45" y1="94.28" x2="218.45" y2="94.57"/>
  <line class="cls-2" x1="218.45" y1="96.59" x2="218.45" y2="96.87"/>
  <line class="cls-2" x1="218.45" y1="98.89" x2="218.45" y2="99.18"/>
  <line class="cls-2" x1="218.45" y1="101.2" x2="218.45" y2="101.48"/>
  <line class="cls-2" x1="218.45" y1="103.5" x2="218.45" y2="103.79"/>
  <line class="cls-2" x1="218.45" y1="105.81" x2="218.45" y2="106.09"/>
  <line class="cls-2" x1="218.45" y1="108.11" x2="218.45" y2="108.4"/>
  <line class="cls-2" x1="218.45" y1="110.42" x2="218.45" y2="110.7"/>
  <line class="cls-2" x1="218.45" y1="112.71" x2="218.45" y2="113.01"/>
  <line class="cls-2" x1="218.45" y1="115.01" x2="218.45" y2="115.31"/>
  <line class="cls-2" x1="218.45" y1="117.32" x2="218.45" y2="117.61"/>
  <line class="cls-2" x1="218.45" y1="119.62" x2="218.45" y2="119.92"/>
  <line class="cls-2" x1="218.45" y1="121.93" x2="218.45" y2="122.22"/>
  <line class="cls-2" x1="218.45" y1="124.23" x2="218.45" y2="124.53"/>
  <line class="cls-2" x1="218.45" y1="126.54" x2="218.45" y2="126.83"/>
  <line class="cls-2" x1="218.45" y1="128.84" x2="218.45" y2="129.14"/>
  <line class="cls-2" x1="218.45" y1="131.15" x2="218.45" y2="131.43"/>
  <line class="cls-2" x1="218.45" y1="133.45" x2="218.45" y2="133.74"/>
  <line class="cls-2" x1="218.45" y1="135.75" x2="218.45" y2="136.04"/>
  <line class="cls-2" x1="218.45" y1="138.06" x2="218.45" y2="138.34"/>
  <line class="cls-2" x1="218.45" y1="140.36" x2="218.45" y2="140.65"/>
  <line class="cls-2" x1="218.45" y1="142.67" x2="218.45" y2="142.95"/>
  <line class="cls-2" x1="218.45" y1="144.97" x2="218.45" y2="145.26"/>
  <line class="cls-2" x1="218.45" y1="147.28" x2="218.45" y2="147.56"/>
  <line class="cls-2" x1="218.45" y1="149.58" x2="218.45" y2="149.87"/>
  <line class="cls-2" x1="218.45" y1="151.89" x2="218.45" y2="152.17"/>
  <line class="cls-2" x1="218.45" y1="154.19" x2="218.45" y2="154.48"/>
  <line class="cls-2" x1="218.45" y1="156.49" x2="218.45" y2="156.78"/>
  <line class="cls-2" x1="218.45" y1="158.8" x2="218.45" y2="159.08"/>
  <line class="cls-2" x1="218.45" y1="161.1" x2="218.45" y2="161.39"/>
  <line class="cls-2" x1="218.45" y1="163.41" x2="218.45" y2="163.69"/>
  <line class="cls-2" x1="218.45" y1="165.7" x2="218.45" y2="166"/>
  <line class="cls-2" x1="218.45" y1="168.01" x2="218.45" y2="168.3"/>
  <line class="cls-2" x1="218.45" y1="170.31" x2="218.45" y2="170.61"/>
  <line class="cls-2" x1="218.45" y1="172.62" x2="218.45" y2="172.91"/>
  <line class="cls-2" x1="218.45" y1="174.92" x2="218.45" y2="175.22"/>
  <line class="cls-2" x1="218.45" y1="177.22" x2="218.45" y2="177.52"/>
  <text class="cls-7" transform="translate(90.74 8.51)"><tspan x="0" y="0">Long-term</tspan></text>
  <text class="cls-7" transform="translate(194.83 8.51)"><tspan x="0" y="0">Short-term</tspan></text>
  <text class="cls-7" transform="translate(94.07 18.59)"><tspan x="0" y="0">standard</tspan></text>
  <text class="cls-7" transform="translate(198.99 18.59)"><tspan x="0" y="0">standard</tspan></text>
  <line class="cls-4" x1="28.51" y1="177.71" x2="28.51" y2="48.18"/>
  <line class="cls-4" x1="28.51" y1="177.71" x2="24.51" y2="177.71"/>
  <text class="cls-8" transform="translate(19.51 180.49) rotate(-90)"><tspan x="0" y="0">0</tspan></text>
  <line class="cls-4" x1="28.51" y1="134.53" x2="24.51" y2="134.53"/>
  <text class="cls-8" transform="translate(19.51 141.48) rotate(-90)"><tspan x="0" y="0">.03</tspan></text>
  <line class="cls-4" x1="28.51" y1="91.35" x2="24.51" y2="91.35"/>
  <text class="cls-8" transform="translate(19.51 98.3) rotate(-90)"><tspan x="0" y="0">.06</tspan></text>
  <line class="cls-4" x1="28.51" y1="48.18" x2="24.51" y2="48.18"/>
  <text class="cls-8" transform="translate(19.51 55.13) rotate(-90)"><tspan x="0" y="0">.09</tspan></text>
  <text class="cls-7" transform="translate(8.51 108.03) rotate(-90)"><tspan x="0" y="0">Density</tspan></text>
  <line class="cls-4" x1="34.85" y1="184.04" x2="297.14" y2="184.04"/>
  <line class="cls-4" x1="34.85" y1="184.04" x2="34.85" y2="188.04"/>
  <text class="cls-8" transform="translate(32.06 197.06)"><tspan x="0" y="0">0</tspan></text>
  <line class="cls-4" x1="87.31" y1="184.04" x2="87.31" y2="188.04"/>
  <text class="cls-8" transform="translate(81.74 197.06)"><tspan x="0" y="0">10</tspan></text>
  <line class="cls-4" x1="139.77" y1="184.04" x2="139.77" y2="188.04"/>
  <text class="cls-8" transform="translate(134.21 197.06)"><tspan x="0" y="0">20</tspan></text>
  <line class="cls-4" x1="192.22" y1="184.04" x2="192.22" y2="188.04"/>
  <text class="cls-8" transform="translate(186.66 197.06)"><tspan x="0" y="0">30</tspan></text>
  <line class="cls-4" x1="244.69" y1="184.04" x2="244.69" y2="188.04"/>
  <text class="cls-8" transform="translate(239.12 197.06)"><tspan x="0" y="0">40</tspan></text>
  <line class="cls-4" x1="297.14" y1="184.04" x2="297.14" y2="188.04"/>
  <text class="cls-8" transform="translate(291.58 197.06)"><tspan x="0" y="0">50</tspan></text>
  <text class="cls-7" transform="translate(135.82 208.06)"><tspan x="0" y="0">PM</tspan></text>
  <text class="cls-9" transform="translate(150.83 209.49)"><tspan x="0" y="0">2.5</tspan></text>
  <line class="cls-3" x1="39.95" y1="218.84" x2="45.71" y2="218.84"/>
  <line class="cls-3" x1="48.59" y1="218.84" x2="54.36" y2="218.84"/>
  <line class="cls-3" x1="57.23" y1="218.84" x2="63" y2="218.84"/>
  <line class="cls-3" x1="65.88" y1="218.84" x2="71.65" y2="218.84"/>
  <line class="cls-3" x1="74.52" y1="218.84" x2="77.4" y2="218.84"/>
  <line class="cls-5" x1="39.95" y1="232.85" x2="45.71" y2="232.85"/>
  <line class="cls-5" x1="48.59" y1="232.85" x2="54.36" y2="232.85"/>
  <line class="cls-5" x1="57.23" y1="232.85" x2="63" y2="232.85"/>
  <line class="cls-5" x1="65.88" y1="232.85" x2="71.65" y2="232.85"/>
  <line class="cls-5" x1="74.52" y1="232.85" x2="77.4" y2="232.85"/>
  <line class="cls-6" x1="39.95" y1="246.86" x2="77.4" y2="246.86"/>
  <text class="cls-7" transform="translate(83.41 222.34)"><tspan x="0" y="0">Observed value, when not missing monitoring</tspan></text>
  <text class="cls-7" transform="translate(83.41 236.35)"><tspan x="0" y="0">Predicted value, when not missing monitoring</tspan></text>
  <text class="cls-7" transform="translate(83.41 250.36)"><tspan x="0" y="0">Predicted value, when missing monitoring</tspan></text>
</svg>